<svg width="365" height="265" viewBox="0 0 365 265" fill="none" xmlns="http://www.w3.org/2000/svg">
<rect width="22.2505" height="75.846" transform="translate(246.366 8)" fill="url(#paint0_linear)"/>
<rect width="13.9066" height="62.9908" rx="4" transform="translate(250.538 23.4258)" fill="url(#paint1_linear)"/>
<path fill-rule="evenodd" clip-rule="evenodd" d="M12.8818 11.3711L6.44092 0L0 11.3711H3.65259V39.793H9.23047V11.3711H12.8818Z" transform="translate(251.05 36.0898)" fill="url(#paint2_linear)"/>
<path d="M0 3.99232C0 1.78742 1.78742 0 3.99232 0V0C6.19722 0 7.98464 1.78742 7.98464 3.99232V134.066H0V3.99232Z" transform="translate(297.255 86.9492)" fill="url(#paint3_linear)"/>
<path d="M0 3.99232C0 1.78742 1.78742 0 3.99232 0V0C6.19722 0 7.98464 1.78742 7.98464 3.99232V134.066H0V3.99232Z" transform="translate(209.252 86.9492)" fill="url(#paint4_linear)"/>
<ellipse cx="70.2648" cy="70.2252" rx="70.2648" ry="70.2252" transform="translate(185.47 80.5664)" fill="url(#paint5_linear)"/>
<ellipse cx="2.39404" cy="2.39539" rx="2.39404" ry="2.39539" transform="translate(252.541 91.7383) rotate(-90)" fill="url(#paint6_linear)"/>
<path d="M0 0V4.78808" transform="translate(254.936 86.9492)" stroke="#E8E8E8"/>
<ellipse cx="2.39404" cy="2.39539" rx="2.39404" ry="2.39539" transform="translate(278.091 98.1289) rotate(-90)" fill="url(#paint7_linear)"/>
<path d="M0 0V4.78808" transform="translate(280.486 93.3398)" stroke="#E8E8E8"/>
<ellipse cx="2.39404" cy="2.39539" rx="2.39404" ry="2.39539" transform="translate(226.99 98.1289) rotate(-90)" fill="url(#paint8_linear)"/>
<path d="M0 0V4.78808" transform="translate(229.385 93.3398)" stroke="#E8E8E8"/>
<ellipse cx="2.39404" cy="2.39539" rx="2.39404" ry="2.39539" transform="translate(314.821 150.793) rotate(-90)" fill="url(#paint9_linear)"/>
<path d="M0 0V4.78808" transform="translate(317.216 146.004)" stroke="#E8E8E8"/>
<ellipse cx="2.39404" cy="2.39539" rx="2.39404" ry="2.39539" transform="translate(191.858 150.793) rotate(-90)" fill="url(#paint10_linear)"/>
<path d="M0 0V4.78808" transform="translate(194.253 146.004)" stroke="#E8E8E8"/>
<ellipse cx="2.39404" cy="2.39539" rx="2.39404" ry="2.39539" transform="translate(195.052 169.941) rotate(-90)" fill="url(#paint11_linear)"/>
<path d="M0 0V4.78808" transform="translate(197.447 165.152)" stroke="#E8E8E8"/>
<ellipse cx="2.39404" cy="2.39539" rx="2.39404" ry="2.39539" transform="translate(311.627 169.941) rotate(-90)" fill="url(#paint12_linear)"/>
<path d="M0 0V4.78808" transform="translate(314.023 165.152)" stroke="#E8E8E8"/>
<ellipse cx="2.39404" cy="2.39539" rx="2.39404" ry="2.39539" transform="translate(302.046 189.094) rotate(-90)" fill="url(#paint13_linear)"/>
<path d="M0 0V4.78808" transform="translate(304.441 184.305)" stroke="#E8E8E8"/>
<ellipse cx="2.39404" cy="2.39539" rx="2.39404" ry="2.39539" transform="translate(282.882 205.055) rotate(-90)" fill="url(#paint14_linear)"/>
<path d="M0 0V4.78808" transform="translate(285.278 200.266)" stroke="#E8E8E8"/>
<ellipse cx="2.39404" cy="2.39539" rx="2.39404" ry="2.39539" transform="translate(252.541 214.629) rotate(-90)" fill="url(#paint15_linear)"/>
<path d="M0 0V4.78808" transform="translate(254.936 209.84)" stroke="#E8E8E8"/>
<ellipse cx="2.39404" cy="2.39539" rx="2.39404" ry="2.39539" transform="translate(223.796 205.055) rotate(-90)" fill="url(#paint16_linear)"/>
<path d="M0 0V4.78808" transform="translate(226.191 200.266)" stroke="#E8E8E8"/>
<ellipse cx="2.39404" cy="2.39539" rx="2.39404" ry="2.39539" transform="translate(204.633 189.094) rotate(-90)" fill="url(#paint17_linear)"/>
<path d="M0 0V4.78808" transform="translate(207.029 184.305)" stroke="#E8E8E8"/>
<ellipse cx="2.39404" cy="2.39539" rx="2.39404" ry="2.39539" transform="translate(207.827 112.488) rotate(-90)" fill="url(#paint18_linear)"/>
<path d="M0 0V4.78808" transform="translate(210.222 107.699)" stroke="#E8E8E8"/>
<ellipse cx="2.39404" cy="2.39539" rx="2.39404" ry="2.39539" transform="translate(297.255 112.488) rotate(-90)" fill="url(#paint19_linear)"/>
<path d="M0 0V4.78808" transform="translate(299.65 107.699)" stroke="#E8E8E8"/>
<ellipse cx="2.39404" cy="2.39539" rx="2.39404" ry="2.39539" transform="translate(310.031 131.641) rotate(-90)" fill="url(#paint20_linear)"/>
<path d="M0 0V4.78808" transform="translate(312.426 126.852)" stroke="#E8E8E8"/>
<ellipse cx="2.39404" cy="2.39539" rx="2.39404" ry="2.39539" transform="translate(196.648 131.641) rotate(-90)" fill="url(#paint21_linear)"/>
<path d="M0 0V4.78808" transform="translate(199.044 126.852)" stroke="#E8E8E8"/>
<g filter="url(#filter0_d)">
<ellipse cx="51.1017" cy="51.0729" rx="51.1017" ry="51.0729" transform="translate(204.633 99.7188)" fill="url(#paint22_radial)"/>
</g>
<path d="M35.0518 70.2489C30.3201 70.2489 25.7295 69.32 21.4073 67.488C17.2331 65.7188 13.4847 63.1864 10.2664 59.9613C7.04767 56.7358 4.52055 52.9795 2.75535 48.7971C0.927144 44.4656 0 39.8655 0 35.1245C0 30.3832 0.926935 25.7831 2.75514 21.4518C4.52035 17.2692 7.04746 13.5131 10.266 10.2878C13.4845 7.06231 17.2329 4.53008 21.4067 2.76116C25.7289 0.928889 30.3193 0 35.0506 0C39.7954 0 44.3927 0.928889 48.7149 2.76095C52.7066 4.45273 56.4546 6.97806 59.8548 10.2669L57.5367 12.6739C54.3889 9.62946 51.078 7.39452 47.4145 5.84199C43.5058 4.18512 39.3462 3.34509 35.0506 3.34509C30.7685 3.34509 26.6155 4.18512 22.7071 5.84178C18.9311 7.44198 15.5395 9.73378 12.6264 12.653C9.71331 15.5722 7.42653 18.971 5.82949 22.755C4.17632 26.6716 3.33805 30.8333 3.33805 35.1245C3.33805 39.4156 4.17632 43.5771 5.8297 47.494C7.42653 51.2779 9.71352 54.6765 12.6266 57.5959C15.5395 60.5149 18.9313 62.8065 22.7075 64.4071C26.6159 66.0638 30.7693 66.9038 35.0516 66.9038C39.3345 66.9038 43.4879 66.0638 47.3963 64.4071C51.1752 62.8055 54.5677 60.5139 57.4795 57.5959C60.3985 54.6708 62.6869 51.2716 64.2817 47.4935C65.9419 43.5608 66.7835 39.3048 66.7835 35.1234H70.1216C70.1216 39.932 69.1913 44.4493 67.3562 48.7965C65.5933 52.9732 63.0645 56.7295 59.8402 59.9607C56.6229 63.1849 52.8737 65.7174 48.6969 67.4875C44.3748 69.3198 39.7839 70.2489 35.0518 70.2489Z" transform="matrix(0.500211 -0.865903 0.866903 0.498477 206.433 165.711)" fill="white"/>
<path d="M18.3593 18.398H0V15.0529H15.0212V0H18.3593V18.398Z" transform="matrix(0.500211 -0.865903 0.866903 0.498477 238.478 124.449)" fill="white"/>
<path fill-rule="evenodd" clip-rule="evenodd" d="M98.7026 36.2852L141.004 18.1445L98.7026 0V10.7461H0V26.7695H98.7026V36.2852Z" transform="translate(105.836 133.336)" fill="url(#paint23_linear)"/>
<path fill-rule="evenodd" clip-rule="evenodd" d="M66.863 24.1914L95.5186 12.0977L66.863 0V7.16406H0V17.8438H66.863V24.1914Z" transform="translate(128.579 169.621)" fill="url(#paint24_linear)"/>
<path fill-rule="evenodd" clip-rule="evenodd" d="M54.1272 18.1445L77.3245 9.07422L54.1272 0V5.37891H0V13.3906H54.1272V18.1445Z" transform="translate(137.675 112.16)" fill="url(#paint25_linear)"/>
<path fill-rule="evenodd" clip-rule="evenodd" d="M111.785 0H0V156.359H111.785V0ZM17.0911 16.3053C18.8768 16.3053 20.3244 14.8052 20.3244 12.9485C20.3244 11.0966 18.8768 9.59164 17.0911 9.59164C15.3051 9.59164 13.8575 11.0966 13.8575 12.9485C13.8575 14.8052 15.3051 16.3053 17.0911 16.3053ZM39.7252 12.9485C39.7252 14.8052 38.2776 16.3053 36.492 16.3053C34.706 16.3053 33.2584 14.8052 33.2584 12.9485C33.2584 11.0966 34.706 9.59164 36.492 9.59164C38.2776 9.59164 39.7252 11.0966 39.7252 12.9485ZM55.8925 16.3053C57.6782 16.3053 59.1258 14.8052 59.1258 12.9485C59.1258 11.0966 57.6782 9.59164 55.8925 9.59164C54.1066 9.59164 52.659 11.0966 52.659 12.9485C52.659 14.8052 54.1066 16.3053 55.8925 16.3053ZM78.5267 12.9485C78.5267 14.8052 77.0791 16.3053 75.2934 16.3053C73.5074 16.3053 72.0598 14.8052 72.0598 12.9485C72.0598 11.0966 73.5074 9.59164 75.2934 9.59164C77.0791 9.59164 78.5267 11.0966 78.5267 12.9485ZM94.694 16.3053C96.4797 16.3053 97.9273 14.8052 97.9273 12.9485C97.9273 11.0966 96.4797 9.59164 94.694 9.59164C92.908 9.59164 91.4604 11.0966 91.4604 12.9485C91.4604 14.8052 92.908 16.3053 94.694 16.3053ZM20.3244 29.2586C20.3244 31.1154 18.8768 32.6155 17.0911 32.6155C15.3051 32.6155 13.8575 31.1154 13.8575 29.2586C13.8575 27.4068 15.3051 25.9018 17.0911 25.9018C18.8768 25.9018 20.3244 27.4068 20.3244 29.2586ZM36.492 32.6155C38.2776 32.6155 39.7252 31.1154 39.7252 29.2586C39.7252 27.4068 38.2776 25.9018 36.492 25.9018C34.706 25.9018 33.2584 27.4068 33.2584 29.2586C33.2584 31.1154 34.706 32.6155 36.492 32.6155ZM59.1258 29.2586C59.1258 31.1154 57.6782 32.6155 55.8925 32.6155C54.1066 32.6155 52.659 31.1154 52.659 29.2586C52.659 27.4068 54.1066 25.9018 55.8925 25.9018C57.6782 25.9018 59.1258 27.4068 59.1258 29.2586ZM75.2934 32.6155C77.0791 32.6155 78.5267 31.1154 78.5267 29.2586C78.5267 27.4068 77.0791 25.9018 75.2934 25.9018C73.5074 25.9018 72.0598 27.4068 72.0598 29.2586C72.0598 31.1154 73.5074 32.6155 75.2934 32.6155ZM97.9273 29.2586C97.9273 31.1154 96.4797 32.6155 94.694 32.6155C92.908 32.6155 91.4604 31.1154 91.4604 29.2586C91.4604 27.4068 92.908 25.9018 94.694 25.9018C96.4797 25.9018 97.9273 27.4068 97.9273 29.2586ZM17.0911 48.9208C18.8768 48.9208 20.3244 47.4207 20.3244 45.5639C20.3244 43.7121 18.8768 42.2071 17.0911 42.2071C15.3051 42.2071 13.8575 43.7121 13.8575 45.5639C13.8575 47.4207 15.3051 48.9208 17.0911 48.9208ZM39.7252 45.5639C39.7252 47.4207 38.2776 48.9208 36.492 48.9208C34.706 48.9208 33.2584 47.4207 33.2584 45.5639C33.2584 43.7121 34.706 42.2071 36.492 42.2071C38.2776 42.2071 39.7252 43.7121 39.7252 45.5639ZM55.8925 48.9208C57.6782 48.9208 59.1258 47.4207 59.1258 45.5639C59.1258 43.7121 57.6782 42.2071 55.8925 42.2071C54.1066 42.2071 52.659 43.7121 52.659 45.5639C52.659 47.4207 54.1066 48.9208 55.8925 48.9208ZM78.5267 45.5639C78.5267 47.4207 77.0791 48.9208 75.2934 48.9208C73.5074 48.9208 72.0598 47.4207 72.0598 45.5639C72.0598 43.7121 73.5074 42.2071 75.2934 42.2071C77.0791 42.2071 78.5267 43.7121 78.5267 45.5639ZM94.694 48.9208C96.4797 48.9208 97.9273 47.4207 97.9273 45.5639C97.9273 43.7121 96.4797 42.2071 94.694 42.2071C92.908 42.2071 91.4604 43.7121 91.4604 45.5639C91.4604 47.4207 92.908 48.9208 94.694 48.9208ZM20.3244 61.8692C20.3244 63.726 18.8768 65.2261 17.0911 65.2261C15.3051 65.2261 13.8575 63.726 13.8575 61.8692C13.8575 60.0174 15.3051 58.5124 17.0911 58.5124C18.8768 58.5124 20.3244 60.0174 20.3244 61.8692ZM36.492 65.2261C38.2776 65.2261 39.7252 63.726 39.7252 61.8692C39.7252 60.0174 38.2776 58.5124 36.492 58.5124C34.706 58.5124 33.2584 60.0174 33.2584 61.8692C33.2584 63.726 34.706 65.2261 36.492 65.2261ZM59.1258 61.8692C59.1258 63.726 57.6782 65.2261 55.8925 65.2261C54.1066 65.2261 52.659 63.726 52.659 61.8692C52.659 60.0174 54.1066 58.5124 55.8925 58.5124C57.6782 58.5124 59.1258 60.0174 59.1258 61.8692ZM75.2934 65.2261C77.0791 65.2261 78.5267 63.726 78.5267 61.8692C78.5267 60.0174 77.0791 58.5124 75.2934 58.5124C73.5074 58.5124 72.0598 60.0174 72.0598 61.8692C72.0598 63.726 73.5074 65.2261 75.2934 65.2261ZM97.9273 61.8692C97.9273 63.726 96.4797 65.2261 94.694 65.2261C92.908 65.2261 91.4604 63.726 91.4604 61.8692C91.4604 60.0174 92.908 58.5124 94.694 58.5124C96.4797 58.5124 97.9273 60.0174 97.9273 61.8692ZM17.0911 81.5362C18.8768 81.5362 20.3244 80.0362 20.3244 78.1794C20.3244 76.3275 18.8768 74.8226 17.0911 74.8226C15.3051 74.8226 13.8575 76.3275 13.8575 78.1794C13.8575 80.0362 15.3051 81.5362 17.0911 81.5362ZM39.7252 78.1794C39.7252 80.0362 38.2776 81.5362 36.492 81.5362C34.706 81.5362 33.2584 80.0362 33.2584 78.1794C33.2584 76.3275 34.706 74.8226 36.492 74.8226C38.2776 74.8226 39.7252 76.3275 39.7252 78.1794ZM55.8925 81.5362C57.6782 81.5362 59.1258 80.0362 59.1258 78.1794C59.1258 76.3275 57.6782 74.8226 55.8925 74.8226C54.1066 74.8226 52.659 76.3275 52.659 78.1794C52.659 80.0362 54.1066 81.5362 55.8925 81.5362ZM78.5267 78.1794C78.5267 80.0362 77.0791 81.5362 75.2934 81.5362C73.5074 81.5362 72.0598 80.0362 72.0598 78.1794C72.0598 76.3275 73.5074 74.8226 75.2934 74.8226C77.0791 74.8226 78.5267 76.3275 78.5267 78.1794ZM94.694 81.5362C96.4797 81.5362 97.9273 80.0362 97.9273 78.1794C97.9273 76.3275 96.4797 74.8226 94.694 74.8226C92.908 74.8226 91.4604 76.3275 91.4604 78.1794C91.4604 80.0362 92.908 81.5362 94.694 81.5362ZM20.3244 94.4847C20.3244 96.3415 18.8768 97.8415 17.0911 97.8415C15.3051 97.8415 13.8575 96.3415 13.8575 94.4847C13.8575 92.6328 15.3051 91.1279 17.0911 91.1279C18.8768 91.1279 20.3244 92.6328 20.3244 94.4847ZM36.492 97.8415C38.2776 97.8415 39.7252 96.3415 39.7252 94.4847C39.7252 92.6328 38.2776 91.1279 36.492 91.1279C34.706 91.1279 33.2584 92.6328 33.2584 94.4847C33.2584 96.3415 34.706 97.8415 36.492 97.8415ZM59.1258 94.4847C59.1258 96.3415 57.6782 97.8415 55.8925 97.8415C54.1066 97.8415 52.659 96.3415 52.659 94.4847C52.659 92.6328 54.1066 91.1279 55.8925 91.1279C57.6782 91.1279 59.1258 92.6328 59.1258 94.4847ZM75.2934 97.8415C77.0791 97.8415 78.5267 96.3415 78.5267 94.4847C78.5267 92.6328 77.0791 91.1279 75.2934 91.1279C73.5074 91.1279 72.0598 92.6328 72.0598 94.4847C72.0598 96.3415 73.5074 97.8415 75.2934 97.8415ZM97.9273 94.4847C97.9273 96.3415 96.4797 97.8415 94.694 97.8415C92.908 97.8415 91.4604 96.3415 91.4604 94.4847C91.4604 92.6328 92.908 91.1279 94.694 91.1279C96.4797 91.1279 97.9273 92.6328 97.9273 94.4847ZM17.0911 114.152C18.8768 114.152 20.3244 112.652 20.3244 110.795C20.3244 108.943 18.8768 107.438 17.0911 107.438C15.3051 107.438 13.8575 108.943 13.8575 110.795C13.8575 112.652 15.3051 114.152 17.0911 114.152ZM39.7252 110.795C39.7252 112.652 38.2776 114.152 36.492 114.152C34.706 114.152 33.2584 112.652 33.2584 110.795C33.2584 108.943 34.706 107.438 36.492 107.438C38.2776 107.438 39.7252 108.943 39.7252 110.795ZM55.8925 114.152C57.6782 114.152 59.1258 112.652 59.1258 110.795C59.1258 108.943 57.6782 107.438 55.8925 107.438C54.1066 107.438 52.659 108.943 52.659 110.795C52.659 112.652 54.1066 114.152 55.8925 114.152ZM78.5267 110.795C78.5267 112.652 77.0791 114.152 75.2934 114.152C73.5074 114.152 72.0598 112.652 72.0598 110.795C72.0598 108.943 73.5074 107.438 75.2934 107.438C77.0791 107.438 78.5267 108.943 78.5267 110.795ZM94.694 114.152C96.4797 114.152 97.9273 112.652 97.9273 110.795C97.9273 108.943 96.4797 107.438 94.694 107.438C92.908 107.438 91.4604 108.943 91.4604 110.795C91.4604 112.652 92.908 114.152 94.694 114.152ZM20.3244 127.1C20.3244 128.957 18.8768 130.457 17.0911 130.457C15.3051 130.457 13.8575 128.957 13.8575 127.1C13.8575 125.248 15.3051 123.743 17.0911 123.743C18.8768 123.743 20.3244 125.248 20.3244 127.1ZM36.492 130.457C38.2776 130.457 39.7252 128.957 39.7252 127.1C39.7252 125.248 38.2776 123.743 36.492 123.743C34.706 123.743 33.2584 125.248 33.2584 127.1C33.2584 128.957 34.706 130.457 36.492 130.457ZM59.1258 127.1C59.1258 128.957 57.6782 130.457 55.8925 130.457C54.1066 130.457 52.659 128.957 52.659 127.1C52.659 125.248 54.1066 123.743 55.8925 123.743C57.6782 123.743 59.1258 125.248 59.1258 127.1ZM75.2934 130.457C77.0791 130.457 78.5267 128.957 78.5267 127.1C78.5267 125.248 77.0791 123.743 75.2934 123.743C73.5074 123.743 72.0598 125.248 72.0598 127.1C72.0598 128.957 73.5074 130.457 75.2934 130.457ZM97.9273 127.1C97.9273 128.957 96.4797 130.457 94.694 130.457C92.908 130.457 91.4604 128.957 91.4604 127.1C91.4604 125.248 92.908 123.743 94.694 123.743C96.4797 123.743 97.9273 125.248 97.9273 127.1ZM17.0911 146.767C18.8768 146.767 20.3244 145.267 20.3244 143.41C20.3244 141.558 18.8768 140.054 17.0911 140.054C15.3051 140.054 13.8575 141.558 13.8575 143.41C13.8575 145.267 15.3051 146.767 17.0911 146.767ZM39.7252 143.41C39.7252 145.267 38.2776 146.767 36.492 146.767C34.706 146.767 33.2584 145.267 33.2584 143.41C33.2584 141.558 34.706 140.054 36.492 140.054C38.2776 140.054 39.7252 141.558 39.7252 143.41ZM55.8925 146.767C57.6782 146.767 59.1258 145.267 59.1258 143.41C59.1258 141.558 57.6782 140.054 55.8925 140.054C54.1066 140.054 52.659 141.558 52.659 143.41C52.659 145.267 54.1066 146.767 55.8925 146.767ZM78.5267 143.41C78.5267 145.267 77.0791 146.767 75.2934 146.767C73.5074 146.767 72.0598 145.267 72.0598 143.41C72.0598 141.558 73.5074 140.054 75.2934 140.054C77.0791 140.054 78.5267 141.558 78.5267 143.41ZM94.694 146.767C96.4797 146.767 97.9273 145.267 97.9273 143.41C97.9273 141.558 96.4797 140.054 94.694 140.054C92.908 140.054 91.4604 141.558 91.4604 143.41C91.4604 145.267 92.908 146.767 94.694 146.767Z" transform="translate(64.3159 74.0234)" fill="#CAC3C3"/>
<g filter="url(#filter1_d)">
<path fill-rule="evenodd" clip-rule="evenodd" d="M111.785 0H0V156.359H111.785V0ZM17.0911 16.3053C18.8768 16.3053 20.3244 14.8052 20.3244 12.9485C20.3244 11.0966 18.8768 9.59164 17.0911 9.59164C15.3051 9.59164 13.8575 11.0966 13.8575 12.9485C13.8575 14.8052 15.3051 16.3053 17.0911 16.3053ZM39.7252 12.9485C39.7252 14.8052 38.2776 16.3053 36.492 16.3053C34.706 16.3053 33.2584 14.8052 33.2584 12.9485C33.2584 11.0966 34.706 9.59164 36.492 9.59164C38.2776 9.59164 39.7252 11.0966 39.7252 12.9485ZM55.8925 16.3053C57.6782 16.3053 59.1258 14.8052 59.1258 12.9485C59.1258 11.0966 57.6782 9.59164 55.8925 9.59164C54.1066 9.59164 52.659 11.0966 52.659 12.9485C52.659 14.8052 54.1066 16.3053 55.8925 16.3053ZM78.5267 12.9485C78.5267 14.8052 77.0791 16.3053 75.2934 16.3053C73.5074 16.3053 72.0598 14.8052 72.0598 12.9485C72.0598 11.0966 73.5074 9.59164 75.2934 9.59164C77.0791 9.59164 78.5267 11.0966 78.5267 12.9485ZM94.694 16.3053C96.4797 16.3053 97.9273 14.8052 97.9273 12.9485C97.9273 11.0966 96.4797 9.59164 94.694 9.59164C92.908 9.59164 91.4604 11.0966 91.4604 12.9485C91.4604 14.8052 92.908 16.3053 94.694 16.3053ZM20.3244 29.2586C20.3244 31.1154 18.8768 32.6155 17.0911 32.6155C15.3051 32.6155 13.8575 31.1154 13.8575 29.2586C13.8575 27.4068 15.3051 25.9018 17.0911 25.9018C18.8768 25.9018 20.3244 27.4068 20.3244 29.2586ZM36.492 32.6155C38.2776 32.6155 39.7252 31.1154 39.7252 29.2586C39.7252 27.4068 38.2776 25.9018 36.492 25.9018C34.706 25.9018 33.2584 27.4068 33.2584 29.2586C33.2584 31.1154 34.706 32.6155 36.492 32.6155ZM59.1258 29.2586C59.1258 31.1154 57.6782 32.6155 55.8925 32.6155C54.1066 32.6155 52.659 31.1154 52.659 29.2586C52.659 27.4068 54.1066 25.9018 55.8925 25.9018C57.6782 25.9018 59.1258 27.4068 59.1258 29.2586ZM75.2934 32.6155C77.0791 32.6155 78.5267 31.1154 78.5267 29.2586C78.5267 27.4068 77.0791 25.9018 75.2934 25.9018C73.5074 25.9018 72.0598 27.4068 72.0598 29.2586C72.0598 31.1154 73.5074 32.6155 75.2934 32.6155ZM97.9273 29.2586C97.9273 31.1154 96.4797 32.6155 94.694 32.6155C92.908 32.6155 91.4604 31.1154 91.4604 29.2586C91.4604 27.4068 92.908 25.9018 94.694 25.9018C96.4797 25.9018 97.9273 27.4068 97.9273 29.2586ZM17.0911 48.9208C18.8768 48.9208 20.3244 47.4207 20.3244 45.5639C20.3244 43.7121 18.8768 42.2071 17.0911 42.2071C15.3051 42.2071 13.8575 43.7121 13.8575 45.5639C13.8575 47.4207 15.3051 48.9208 17.0911 48.9208ZM39.7252 45.5639C39.7252 47.4207 38.2776 48.9208 36.492 48.9208C34.706 48.9208 33.2584 47.4207 33.2584 45.5639C33.2584 43.7121 34.706 42.2071 36.492 42.2071C38.2776 42.2071 39.7252 43.7121 39.7252 45.5639ZM55.8925 48.9208C57.6782 48.9208 59.1258 47.4207 59.1258 45.5639C59.1258 43.7121 57.6782 42.2071 55.8925 42.2071C54.1066 42.2071 52.659 43.7121 52.659 45.5639C52.659 47.4207 54.1066 48.9208 55.8925 48.9208ZM78.5267 45.5639C78.5267 47.4207 77.0791 48.9208 75.2934 48.9208C73.5074 48.9208 72.0598 47.4207 72.0598 45.5639C72.0598 43.7121 73.5074 42.2071 75.2934 42.2071C77.0791 42.2071 78.5267 43.7121 78.5267 45.5639ZM94.694 48.9208C96.4797 48.9208 97.9273 47.4207 97.9273 45.5639C97.9273 43.7121 96.4797 42.2071 94.694 42.2071C92.908 42.2071 91.4604 43.7121 91.4604 45.5639C91.4604 47.4207 92.908 48.9208 94.694 48.9208ZM20.3244 61.8692C20.3244 63.726 18.8768 65.2261 17.0911 65.2261C15.3051 65.2261 13.8575 63.726 13.8575 61.8692C13.8575 60.0174 15.3051 58.5124 17.0911 58.5124C18.8768 58.5124 20.3244 60.0174 20.3244 61.8692ZM36.492 65.2261C38.2776 65.2261 39.7252 63.726 39.7252 61.8692C39.7252 60.0174 38.2776 58.5124 36.492 58.5124C34.706 58.5124 33.2584 60.0174 33.2584 61.8692C33.2584 63.726 34.706 65.2261 36.492 65.2261ZM59.1258 61.8692C59.1258 63.726 57.6782 65.2261 55.8925 65.2261C54.1066 65.2261 52.659 63.726 52.659 61.8692C52.659 60.0174 54.1066 58.5124 55.8925 58.5124C57.6782 58.5124 59.1258 60.0174 59.1258 61.8692ZM75.2934 65.2261C77.0791 65.2261 78.5267 63.726 78.5267 61.8692C78.5267 60.0174 77.0791 58.5124 75.2934 58.5124C73.5074 58.5124 72.0598 60.0174 72.0598 61.8692C72.0598 63.726 73.5074 65.2261 75.2934 65.2261ZM97.9273 61.8692C97.9273 63.726 96.4797 65.2261 94.694 65.2261C92.908 65.2261 91.4604 63.726 91.4604 61.8692C91.4604 60.0174 92.908 58.5124 94.694 58.5124C96.4797 58.5124 97.9273 60.0174 97.9273 61.8692ZM17.0911 81.5362C18.8768 81.5362 20.3244 80.0362 20.3244 78.1794C20.3244 76.3275 18.8768 74.8226 17.0911 74.8226C15.3051 74.8226 13.8575 76.3275 13.8575 78.1794C13.8575 80.0362 15.3051 81.5362 17.0911 81.5362ZM39.7252 78.1794C39.7252 80.0362 38.2776 81.5362 36.492 81.5362C34.706 81.5362 33.2584 80.0362 33.2584 78.1794C33.2584 76.3275 34.706 74.8226 36.492 74.8226C38.2776 74.8226 39.7252 76.3275 39.7252 78.1794ZM55.8925 81.5362C57.6782 81.5362 59.1258 80.0362 59.1258 78.1794C59.1258 76.3275 57.6782 74.8226 55.8925 74.8226C54.1066 74.8226 52.659 76.3275 52.659 78.1794C52.659 80.0362 54.1066 81.5362 55.8925 81.5362ZM78.5267 78.1794C78.5267 80.0362 77.0791 81.5362 75.2934 81.5362C73.5074 81.5362 72.0598 80.0362 72.0598 78.1794C72.0598 76.3275 73.5074 74.8226 75.2934 74.8226C77.0791 74.8226 78.5267 76.3275 78.5267 78.1794ZM94.694 81.5362C96.4797 81.5362 97.9273 80.0362 97.9273 78.1794C97.9273 76.3275 96.4797 74.8226 94.694 74.8226C92.908 74.8226 91.4604 76.3275 91.4604 78.1794C91.4604 80.0362 92.908 81.5362 94.694 81.5362ZM20.3244 94.4847C20.3244 96.3415 18.8768 97.8415 17.0911 97.8415C15.3051 97.8415 13.8575 96.3415 13.8575 94.4847C13.8575 92.6328 15.3051 91.1279 17.0911 91.1279C18.8768 91.1279 20.3244 92.6328 20.3244 94.4847ZM36.492 97.8415C38.2776 97.8415 39.7252 96.3415 39.7252 94.4847C39.7252 92.6328 38.2776 91.1279 36.492 91.1279C34.706 91.1279 33.2584 92.6328 33.2584 94.4847C33.2584 96.3415 34.706 97.8415 36.492 97.8415ZM59.1258 94.4847C59.1258 96.3415 57.6782 97.8415 55.8925 97.8415C54.1066 97.8415 52.659 96.3415 52.659 94.4847C52.659 92.6328 54.1066 91.1279 55.8925 91.1279C57.6782 91.1279 59.1258 92.6328 59.1258 94.4847ZM75.2934 97.8415C77.0791 97.8415 78.5267 96.3415 78.5267 94.4847C78.5267 92.6328 77.0791 91.1279 75.2934 91.1279C73.5074 91.1279 72.0598 92.6328 72.0598 94.4847C72.0598 96.3415 73.5074 97.8415 75.2934 97.8415ZM97.9273 94.4847C97.9273 96.3415 96.4797 97.8415 94.694 97.8415C92.908 97.8415 91.4604 96.3415 91.4604 94.4847C91.4604 92.6328 92.908 91.1279 94.694 91.1279C96.4797 91.1279 97.9273 92.6328 97.9273 94.4847ZM17.0911 114.152C18.8768 114.152 20.3244 112.652 20.3244 110.795C20.3244 108.943 18.8768 107.438 17.0911 107.438C15.3051 107.438 13.8575 108.943 13.8575 110.795C13.8575 112.652 15.3051 114.152 17.0911 114.152ZM39.7252 110.795C39.7252 112.652 38.2776 114.152 36.492 114.152C34.706 114.152 33.2584 112.652 33.2584 110.795C33.2584 108.943 34.706 107.438 36.492 107.438C38.2776 107.438 39.7252 108.943 39.7252 110.795ZM55.8925 114.152C57.6782 114.152 59.1258 112.652 59.1258 110.795C59.1258 108.943 57.6782 107.438 55.8925 107.438C54.1066 107.438 52.659 108.943 52.659 110.795C52.659 112.652 54.1066 114.152 55.8925 114.152ZM78.5267 110.795C78.5267 112.652 77.0791 114.152 75.2934 114.152C73.5074 114.152 72.0598 112.652 72.0598 110.795C72.0598 108.943 73.5074 107.438 75.2934 107.438C77.0791 107.438 78.5267 108.943 78.5267 110.795ZM94.694 114.152C96.4797 114.152 97.9273 112.652 97.9273 110.795C97.9273 108.943 96.4797 107.438 94.694 107.438C92.908 107.438 91.4604 108.943 91.4604 110.795C91.4604 112.652 92.908 114.152 94.694 114.152ZM20.3244 127.1C20.3244 128.957 18.8768 130.457 17.0911 130.457C15.3051 130.457 13.8575 128.957 13.8575 127.1C13.8575 125.248 15.3051 123.743 17.0911 123.743C18.8768 123.743 20.3244 125.248 20.3244 127.1ZM36.492 130.457C38.2776 130.457 39.7252 128.957 39.7252 127.1C39.7252 125.248 38.2776 123.743 36.492 123.743C34.706 123.743 33.2584 125.248 33.2584 127.1C33.2584 128.957 34.706 130.457 36.492 130.457ZM59.1258 127.1C59.1258 128.957 57.6782 130.457 55.8925 130.457C54.1066 130.457 52.659 128.957 52.659 127.1C52.659 125.248 54.1066 123.743 55.8925 123.743C57.6782 123.743 59.1258 125.248 59.1258 127.1ZM75.2934 130.457C77.0791 130.457 78.5267 128.957 78.5267 127.1C78.5267 125.248 77.0791 123.743 75.2934 123.743C73.5074 123.743 72.0598 125.248 72.0598 127.1C72.0598 128.957 73.5074 130.457 75.2934 130.457ZM97.9273 127.1C97.9273 128.957 96.4797 130.457 94.694 130.457C92.908 130.457 91.4604 128.957 91.4604 127.1C91.4604 125.248 92.908 123.743 94.694 123.743C96.4797 123.743 97.9273 125.248 97.9273 127.1ZM17.0911 146.767C18.8768 146.767 20.3244 145.267 20.3244 143.41C20.3244 141.558 18.8768 140.054 17.0911 140.054C15.3051 140.054 13.8575 141.558 13.8575 143.41C13.8575 145.267 15.3051 146.767 17.0911 146.767ZM39.7252 143.41C39.7252 145.267 38.2776 146.767 36.492 146.767C34.706 146.767 33.2584 145.267 33.2584 143.41C33.2584 141.558 34.706 140.054 36.492 140.054C38.2776 140.054 39.7252 141.558 39.7252 143.41ZM55.8925 146.767C57.6782 146.767 59.1258 145.267 59.1258 143.41C59.1258 141.558 57.6782 140.054 55.8925 140.054C54.1066 140.054 52.659 141.558 52.659 143.41C52.659 145.267 54.1066 146.767 55.8925 146.767ZM78.5267 143.41C78.5267 145.267 77.0791 146.767 75.2934 146.767C73.5074 146.767 72.0598 145.267 72.0598 143.41C72.0598 141.558 73.5074 140.054 75.2934 140.054C77.0791 140.054 78.5267 141.558 78.5267 143.41ZM94.694 146.767C96.4797 146.767 97.9273 145.267 97.9273 143.41C97.9273 141.558 96.4797 140.054 94.694 140.054C92.908 140.054 91.4604 141.558 91.4604 143.41C91.4604 145.267 92.908 146.767 94.694 146.767Z" transform="translate(53.1375 66.5234)" fill="#CAC3C3"/>
</g>
<path fill-rule="evenodd" clip-rule="evenodd" d="M95.1433 34.7773L110.741 0L73.9182 10.8477L81.1931 19.0508C64.2219 29.6367 33.0793 50.918 0 82.7617L30.6697 87.8672C33.238 70.9258 55.6311 51.7305 87.4561 26.1094L95.1433 34.7773Z" transform="translate(9 136.07)" fill="url(#paint26_linear)"/>
<path fill-rule="evenodd" clip-rule="evenodd" d="M60.5151 21.3438L70.0752 0L47.5059 6.66016L51.5002 11.168C27.8945 25.5977 0 54.4219 0 54.4219L18.7981 57.5547C18.7981 57.5547 39.4673 31.5234 55.6921 15.8984L60.5151 21.3438Z" transform="translate(12.1497 129.723)" fill="url(#paint27_linear)"/>
<path fill-rule="evenodd" clip-rule="evenodd" d="M73.5869 21.3438L83.147 0L60.5776 6.66016L64.5562 11.1523C51.5364 18.5156 30.0762 35.3672 0 59.4922L18.7983 62.625C32.4912 46.8711 50.8577 31.4336 63.7317 20.6172C65.6179 19.0312 67.3862 17.5469 69.0049 16.1719L73.5869 21.3438Z" transform="translate(36.7422 172.367)" fill="url(#paint28_linear)"/>
<defs>
<filter id="filter0_d" x="196.633" y="91.7188" width="118.203" height="118.146" filterUnits="userSpaceOnUse" color-interpolation-filters="sRGB">
<feFlood flood-opacity="0" result="BackgroundImageFix"/>
<feColorMatrix in="SourceAlpha" type="matrix" values="0 0 0 0 0 0 0 0 0 0 0 0 0 0 0 0 0 0 255 0"/>
<feOffset/>
<feGaussianBlur stdDeviation="4"/>
<feColorMatrix type="matrix" values="0 0 0 0 0 0 0 0 0 0 0 0 0 0 0 0 0 0 0.15 0"/>
<feBlend mode="normal" in2="BackgroundImageFix" result="effect1_dropShadow"/>
<feBlend mode="normal" in="SourceGraphic" in2="effect1_dropShadow" result="shape"/>
</filter>
<filter id="filter1_d" x="51.1375" y="62.5234" width="119.785" height="164.359" filterUnits="userSpaceOnUse" color-interpolation-filters="sRGB">
<feFlood flood-opacity="0" result="BackgroundImageFix"/>
<feColorMatrix in="SourceAlpha" type="matrix" values="0 0 0 0 0 0 0 0 0 0 0 0 0 0 0 0 0 0 255 0"/>
<feOffset dx="2"/>
<feGaussianBlur stdDeviation="2"/>
<feColorMatrix type="matrix" values="0 0 0 0 0 0 0 0 0 0 0 0 0 0 0 0 0 0 0.25 0"/>
<feBlend mode="normal" in2="BackgroundImageFix" result="effect1_dropShadow"/>
<feBlend mode="normal" in="SourceGraphic" in2="effect1_dropShadow" result="shape"/>
</filter>
<linearGradient id="paint0_linear" x2="1" gradientUnits="userSpaceOnUse" gradientTransform="translate(22.2505 45.2113) scale(22.2505 5.57788) rotate(-180)">
<stop stop-color="#BDBDBD"/>
<stop offset="0.496476" stop-color="#E0E0E0"/>
<stop offset="1" stop-color="#BDBDBD"/>
</linearGradient>
<linearGradient id="paint1_linear" x2="1" gradientUnits="userSpaceOnUse" gradientTransform="translate(13.9066) scale(13.9066 62.9908) rotate(90)">
<stop stop-color="#B9B9B9"/>
<stop offset="0.0828729" stop-color="#E0E0E0"/>
<stop offset="1" stop-color="#E0E0E0"/>
</linearGradient>
<linearGradient id="paint2_linear" x2="1" gradientUnits="userSpaceOnUse" gradientTransform="translate(11.8083) scale(10.7349 33.1608) rotate(90)">
<stop offset="0.253779" stop-color="white"/>
<stop offset="1" stop-color="white" stop-opacity="0"/>
</linearGradient>
<linearGradient id="paint3_linear" x2="1" gradientUnits="userSpaceOnUse" gradientTransform="translate(-0.442322 106.314) scale(10.2695 0.606421)">
<stop stop-color="#CDCDCD"/>
<stop offset="0.447514" stop-color="#E6E2E2"/>
<stop offset="1" stop-color="#DADADA"/>
</linearGradient>
<linearGradient id="paint4_linear" x2="1" gradientUnits="userSpaceOnUse" gradientTransform="translate(-0.442322 106.314) scale(10.2695 0.606421)">
<stop stop-color="#CDCDCD"/>
<stop offset="0.447514" stop-color="#E6E2E2"/>
<stop offset="1" stop-color="#DADADA"/>
</linearGradient>
<linearGradient id="paint5_linear" x2="1" gradientUnits="userSpaceOnUse" gradientTransform="matrix(120.531 104.948 -105.007 119.574 81.1501 -42.5855)">
<stop stop-color="#C3C3C3"/>
<stop offset="1" stop-color="#D9D9D9"/>
</linearGradient>
<linearGradient id="paint6_linear" x2="1" gradientUnits="userSpaceOnUse" gradientTransform="translate(4.78808) scale(4.78808 4.79078) rotate(90)">
<stop stop-color="#E3E3E3"/>
<stop offset="0.276243" stop-color="#F4F4F4"/>
<stop offset="0.403315" stop-color="#E8E8E8"/>
<stop offset="0.596685" stop-color="#F1F1F1"/>
<stop offset="0.745856" stop-color="#EDECEC"/>
</linearGradient>
<linearGradient id="paint7_linear" x2="1" gradientUnits="userSpaceOnUse" gradientTransform="translate(4.78808) scale(4.78808 4.79078) rotate(90)">
<stop stop-color="#E3E3E3"/>
<stop offset="0.276243" stop-color="#F4F4F4"/>
<stop offset="0.403315" stop-color="#E8E8E8"/>
<stop offset="0.596685" stop-color="#F1F1F1"/>
<stop offset="0.745856" stop-color="#EDECEC"/>
</linearGradient>
<linearGradient id="paint8_linear" x2="1" gradientUnits="userSpaceOnUse" gradientTransform="translate(4.78808) scale(4.78808 4.79078) rotate(90)">
<stop stop-color="#E3E3E3"/>
<stop offset="0.276243" stop-color="#F4F4F4"/>
<stop offset="0.403315" stop-color="#E8E8E8"/>
<stop offset="0.596685" stop-color="#F1F1F1"/>
<stop offset="0.745856" stop-color="#EDECEC"/>
</linearGradient>
<linearGradient id="paint9_linear" x2="1" gradientUnits="userSpaceOnUse" gradientTransform="translate(4.78808) scale(4.78808 4.79078) rotate(90)">
<stop stop-color="#E3E3E3"/>
<stop offset="0.276243" stop-color="#F4F4F4"/>
<stop offset="0.403315" stop-color="#E8E8E8"/>
<stop offset="0.596685" stop-color="#F1F1F1"/>
<stop offset="0.745856" stop-color="#EDECEC"/>
</linearGradient>
<linearGradient id="paint10_linear" x2="1" gradientUnits="userSpaceOnUse" gradientTransform="translate(4.78808) scale(4.78808 4.79078) rotate(90)">
<stop stop-color="#E3E3E3"/>
<stop offset="0.276243" stop-color="#F4F4F4"/>
<stop offset="0.403315" stop-color="#E8E8E8"/>
<stop offset="0.596685" stop-color="#F1F1F1"/>
<stop offset="0.745856" stop-color="#EDECEC"/>
</linearGradient>
<linearGradient id="paint11_linear" x2="1" gradientUnits="userSpaceOnUse" gradientTransform="translate(4.78808) scale(4.78808 4.79078) rotate(90)">
<stop stop-color="#E3E3E3"/>
<stop offset="0.276243" stop-color="#F4F4F4"/>
<stop offset="0.403315" stop-color="#E8E8E8"/>
<stop offset="0.596685" stop-color="#F1F1F1"/>
<stop offset="0.745856" stop-color="#EDECEC"/>
</linearGradient>
<linearGradient id="paint12_linear" x2="1" gradientUnits="userSpaceOnUse" gradientTransform="translate(4.78808) scale(4.78808 4.79078) rotate(90)">
<stop stop-color="#E3E3E3"/>
<stop offset="0.276243" stop-color="#F4F4F4"/>
<stop offset="0.403315" stop-color="#E8E8E8"/>
<stop offset="0.596685" stop-color="#F1F1F1"/>
<stop offset="0.745856" stop-color="#EDECEC"/>
</linearGradient>
<linearGradient id="paint13_linear" x2="1" gradientUnits="userSpaceOnUse" gradientTransform="translate(4.78808) scale(4.78808 4.79078) rotate(90)">
<stop stop-color="#E3E3E3"/>
<stop offset="0.276243" stop-color="#F4F4F4"/>
<stop offset="0.403315" stop-color="#E8E8E8"/>
<stop offset="0.596685" stop-color="#F1F1F1"/>
<stop offset="0.745856" stop-color="#EDECEC"/>
</linearGradient>
<linearGradient id="paint14_linear" x2="1" gradientUnits="userSpaceOnUse" gradientTransform="translate(4.78808) scale(4.78808 4.79078) rotate(90)">
<stop stop-color="#E3E3E3"/>
<stop offset="0.276243" stop-color="#F4F4F4"/>
<stop offset="0.403315" stop-color="#E8E8E8"/>
<stop offset="0.596685" stop-color="#F1F1F1"/>
<stop offset="0.745856" stop-color="#EDECEC"/>
</linearGradient>
<linearGradient id="paint15_linear" x2="1" gradientUnits="userSpaceOnUse" gradientTransform="translate(4.78808) scale(4.78808 4.79078) rotate(90)">
<stop stop-color="#E3E3E3"/>
<stop offset="0.276243" stop-color="#F4F4F4"/>
<stop offset="0.403315" stop-color="#E8E8E8"/>
<stop offset="0.596685" stop-color="#F1F1F1"/>
<stop offset="0.745856" stop-color="#EDECEC"/>
</linearGradient>
<linearGradient id="paint16_linear" x2="1" gradientUnits="userSpaceOnUse" gradientTransform="translate(4.78808) scale(4.78808 4.79078) rotate(90)">
<stop stop-color="#E3E3E3"/>
<stop offset="0.276243" stop-color="#F4F4F4"/>
<stop offset="0.403315" stop-color="#E8E8E8"/>
<stop offset="0.596685" stop-color="#F1F1F1"/>
<stop offset="0.745856" stop-color="#EDECEC"/>
</linearGradient>
<linearGradient id="paint17_linear" x2="1" gradientUnits="userSpaceOnUse" gradientTransform="translate(4.78808) scale(4.78808 4.79078) rotate(90)">
<stop stop-color="#E3E3E3"/>
<stop offset="0.276243" stop-color="#F4F4F4"/>
<stop offset="0.403315" stop-color="#E8E8E8"/>
<stop offset="0.596685" stop-color="#F1F1F1"/>
<stop offset="0.745856" stop-color="#EDECEC"/>
</linearGradient>
<linearGradient id="paint18_linear" x2="1" gradientUnits="userSpaceOnUse" gradientTransform="translate(4.78808) scale(4.78808 4.79078) rotate(90)">
<stop stop-color="#E3E3E3"/>
<stop offset="0.276243" stop-color="#F4F4F4"/>
<stop offset="0.403315" stop-color="#E8E8E8"/>
<stop offset="0.596685" stop-color="#F1F1F1"/>
<stop offset="0.745856" stop-color="#EDECEC"/>
</linearGradient>
<linearGradient id="paint19_linear" x2="1" gradientUnits="userSpaceOnUse" gradientTransform="translate(4.78808) scale(4.78808 4.79078) rotate(90)">
<stop stop-color="#E3E3E3"/>
<stop offset="0.276243" stop-color="#F4F4F4"/>
<stop offset="0.403315" stop-color="#E8E8E8"/>
<stop offset="0.596685" stop-color="#F1F1F1"/>
<stop offset="0.745856" stop-color="#EDECEC"/>
</linearGradient>
<linearGradient id="paint20_linear" x2="1" gradientUnits="userSpaceOnUse" gradientTransform="translate(4.78808) scale(4.78808 4.79078) rotate(90)">
<stop stop-color="#E3E3E3"/>
<stop offset="0.276243" stop-color="#F4F4F4"/>
<stop offset="0.403315" stop-color="#E8E8E8"/>
<stop offset="0.596685" stop-color="#F1F1F1"/>
<stop offset="0.745856" stop-color="#EDECEC"/>
</linearGradient>
<linearGradient id="paint21_linear" x2="1" gradientUnits="userSpaceOnUse" gradientTransform="translate(4.78808) scale(4.78808 4.79078) rotate(90)">
<stop stop-color="#E3E3E3"/>
<stop offset="0.276243" stop-color="#F4F4F4"/>
<stop offset="0.403315" stop-color="#E8E8E8"/>
<stop offset="0.596685" stop-color="#F1F1F1"/>
<stop offset="0.745856" stop-color="#EDECEC"/>
</linearGradient>
<radialGradient id="paint22_radial" cx="0.5" cy="0.5" r="0.5" gradientUnits="userSpaceOnUse" gradientTransform="translate(102.203) scale(102.203 102.146) rotate(90)">
<stop stop-color="#E1E1E1"/>
<stop offset="1" stop-color="#E1E1E1"/>
</radialGradient>
<linearGradient id="paint23_linear" x2="1" gradientUnits="userSpaceOnUse" gradientTransform="matrix(-128.742 1.84844 -7.18301 -505.34 120.686 268.964)">
<stop offset="0.0882871" stop-color="white"/>
<stop offset="0.50495" stop-color="white" stop-opacity="0"/>
</linearGradient>
<linearGradient id="paint24_linear" x2="1" gradientUnits="userSpaceOnUse" gradientTransform="matrix(-87.2126 1.23236 -4.8659 -336.912 81.7549 179.319)">
<stop offset="0.0882871" stop-color="white"/>
<stop offset="0.50495" stop-color="white" stop-opacity="0"/>
</linearGradient>
<linearGradient id="paint25_linear" x2="1" gradientUnits="userSpaceOnUse" gradientTransform="matrix(-70.6006 0.924319 -3.93906 -252.697 66.1825 134.497)">
<stop offset="0.0882871" stop-color="white"/>
<stop offset="0.50495" stop-color="white" stop-opacity="0"/>
</linearGradient>
<linearGradient id="paint26_linear" x2="1" gradientUnits="userSpaceOnUse" gradientTransform="matrix(-99.1104 79.7414 -100.5 -73.5538 161.074 38.1777)">
<stop stop-color="#EAEAEA"/>
<stop offset="0.825831" stop-color="white" stop-opacity="0"/>
</linearGradient>
<linearGradient id="paint27_linear" x2="1" gradientUnits="userSpaceOnUse" gradientTransform="matrix(-62.7157 52.2322 -63.5948 -48.1792 101.925 25.0071)">
<stop stop-color="#EAEAEA"/>
<stop offset="0.825831" stop-color="white" stop-opacity="0"/>
</linearGradient>
<linearGradient id="paint28_linear" x2="1" gradientUnits="userSpaceOnUse" gradientTransform="matrix(-74.9934 56.8875 -76.0447 -52.4733 121.232 27.236)">
<stop stop-color="#EAEAEA"/>
<stop offset="0.825831" stop-color="white" stop-opacity="0"/>
</linearGradient>
</defs>
</svg>
