<svg width="265" height="18" viewBox="0 0 265 18" fill="none" xmlns="http://www.w3.org/2000/svg">
<circle cx="1.5" cy="1.5" r="1.5" transform="translate(26 1)" fill="#AEC0C8"/>
<circle cx="1.5" cy="1.5" r="1.5" transform="translate(18 1)" fill="#AEC0C8"/>
<circle cx="1.5" cy="1.5" r="1.5" transform="translate(10 1)" fill="#AEC0C8"/>
<circle cx="2.5" cy="2.5" r="2.5" fill="#AEC0C8"/>
<circle cx="1.5" cy="1.5" r="1.5" transform="translate(34 1)" fill="#AEC0C8"/>
<circle cx="1.5" cy="1.5" r="1.5" transform="translate(42 1)" fill="#AEC0C8"/>
<circle cx="1.5" cy="1.5" r="1.5" transform="translate(50 1)" fill="#AEC0C8"/>
<circle cx="1.5" cy="1.5" r="1.5" transform="translate(58 1)" fill="#AEC0C8"/>
<circle cx="1.5" cy="1.5" r="1.5" transform="translate(66 1)" fill="#AEC0C8"/>
<circle cx="1.5" cy="1.5" r="1.5" transform="translate(74 1)" fill="#AEC0C8"/>
<circle cx="1.5" cy="1.5" r="1.5" transform="translate(82 1)" fill="#AEC0C8"/>
<circle cx="1.5" cy="1.5" r="1.5" transform="translate(90 1)" fill="#AEC0C8"/>
<circle cx="1.5" cy="1.5" r="1.5" transform="translate(98 1)" fill="#AEC0C8"/>
<circle cx="1.5" cy="1.5" r="1.5" transform="translate(106 1)" fill="#AEC0C8"/>
<circle cx="1.5" cy="1.5" r="1.5" transform="translate(114 1)" fill="#AEC0C8"/>
<circle cx="1.5" cy="1.5" r="1.5" transform="translate(122 1)" fill="#AEC0C8"/>
<circle cx="2.5" cy="2.5" r="2.5" transform="translate(130)" fill="#AEC0C8"/>
<circle cx="1.5" cy="1.5" r="1.5" transform="translate(140 1)" fill="#AEC0C8"/>
<circle cx="1.5" cy="1.5" r="1.5" transform="translate(148 1)" fill="#AEC0C8"/>
<circle cx="1.5" cy="1.5" r="1.5" transform="translate(156 1)" fill="#AEC0C8"/>
<circle cx="1.5" cy="1.5" r="1.5" transform="translate(164 1)" fill="#AEC0C8"/>
<circle cx="1.5" cy="1.5" r="1.5" transform="translate(172 1)" fill="#AEC0C8"/>
<circle cx="1.5" cy="1.5" r="1.5" transform="translate(180 1)" fill="#AEC0C8"/>
<circle cx="1.5" cy="1.5" r="1.5" transform="translate(188 1)" fill="#AEC0C8"/>
<circle cx="1.5" cy="1.5" r="1.5" transform="translate(196 1)" fill="#AEC0C8"/>
<circle cx="1.5" cy="1.5" r="1.5" transform="translate(204 1)" fill="#AEC0C8"/>
<circle cx="1.5" cy="1.5" r="1.5" transform="translate(212 1)" fill="#AEC0C8"/>
<circle cx="1.5" cy="1.5" r="1.5" transform="translate(220 1)" fill="#AEC0C8"/>
<circle cx="1.5" cy="1.5" r="1.5" transform="translate(228 1)" fill="#AEC0C8"/>
<circle cx="1.5" cy="1.5" r="1.5" transform="translate(236 1)" fill="#AEC0C8"/>
<circle cx="1.5" cy="1.5" r="1.5" transform="translate(244 1)" fill="#AEC0C8"/>
<circle cx="1.5" cy="1.5" r="1.5" transform="translate(252 1)" fill="#AEC0C8"/>
<circle cx="2.5" cy="2.5" r="2.5" transform="translate(260)" fill="#AEC0C8"/>
<path d="M0 0V9" transform="translate(2.5 8)" stroke="#AEC0C8"/>
<path d="M0 0V9" transform="translate(132.5 9)" stroke="#AEC0C8"/>
<path d="M0 0V9" transform="translate(262.5 9)" stroke="#AEC0C8"/>
</svg>
