<svg width="325" height="265" viewBox="0 0 325 265" fill="none" xmlns="http://www.w3.org/2000/svg">
<mask id="mask0" mask-type="alpha" maskUnits="userSpaceOnUse" x="0" y="0" width="325" height="265">
<rect width="325" height="265" fill="#C4C4C4"/>
</mask>
<g mask="url(#mask0)">
<rect width="20.7766" height="70.8342" transform="translate(236.642 27)" fill="url(#paint0_linear)"/>
<rect width="12.9854" height="58.8284" rx="4" transform="translate(240.537 41.4062)" fill="url(#paint1_linear)"/>
<path fill-rule="evenodd" clip-rule="evenodd" d="M12.0286 10.6172L6.01416 0L0 10.6172H3.4104V37.1641H8.6189V10.6172H12.0286Z" transform="translate(241.016 53.2344)" fill="url(#paint2_linear)"/>
<path d="M0 3.72786C0 1.66902 1.66902 0 3.72785 0V0C5.78669 0 7.45571 1.66902 7.45571 3.72785V125.207H0V3.72786Z" transform="translate(284.16 100.734)" fill="url(#paint3_linear)"/>
<path d="M0 3.72786C0 1.66902 1.66902 0 3.72785 0V0C5.78669 0 7.45571 1.66902 7.45571 3.72785V125.207H0V3.72786Z" transform="translate(201.986 100.734)" fill="url(#paint4_linear)"/>
<ellipse cx="65.6102" cy="65.5848" rx="65.6102" ry="65.5848" transform="translate(179.78 94.7734)" fill="url(#paint5_linear)"/>
<ellipse cx="2.23584" cy="2.23671" rx="2.23584" ry="2.23671" transform="translate(242.407 105.207) rotate(-90)" fill="url(#paint6_linear)"/>
<path d="M0 0V4.47169" transform="translate(244.644 100.734)" stroke="#E8E8E8"/>
<ellipse cx="2.23584" cy="2.23671" rx="2.23584" ry="2.23671" transform="translate(266.265 111.176) rotate(-90)" fill="url(#paint7_linear)"/>
<path d="M0 0V4.47169" transform="translate(268.502 106.703)" stroke="#E8E8E8"/>
<ellipse cx="2.23584" cy="2.23671" rx="2.23584" ry="2.23671" transform="translate(218.549 111.176) rotate(-90)" fill="url(#paint8_linear)"/>
<path d="M0 0V4.47169" transform="translate(220.786 106.703)" stroke="#E8E8E8"/>
<ellipse cx="2.23584" cy="2.23671" rx="2.23584" ry="2.23671" transform="translate(300.562 160.359) rotate(-90)" fill="url(#paint9_linear)"/>
<path d="M0 0V4.47169" transform="translate(302.798 155.887)" stroke="#E8E8E8"/>
<ellipse cx="2.23584" cy="2.23671" rx="2.23584" ry="2.23671" transform="translate(185.744 160.359) rotate(-90)" fill="url(#paint10_linear)"/>
<path d="M0 0V4.47169" transform="translate(187.981 155.887)" stroke="#E8E8E8"/>
<ellipse cx="2.23584" cy="2.23671" rx="2.23584" ry="2.23671" transform="translate(188.727 178.242) rotate(-90)" fill="url(#paint11_linear)"/>
<path d="M0 0V4.47169" transform="translate(190.964 173.77)" stroke="#E8E8E8"/>
<ellipse cx="2.23584" cy="2.23671" rx="2.23584" ry="2.23671" transform="translate(297.58 178.242) rotate(-90)" fill="url(#paint12_linear)"/>
<path d="M0 0V4.47169" transform="translate(299.817 173.77)" stroke="#E8E8E8"/>
<ellipse cx="2.23584" cy="2.23671" rx="2.23584" ry="2.23671" transform="translate(288.633 196.133) rotate(-90)" fill="url(#paint13_linear)"/>
<path d="M0 0V4.47169" transform="translate(290.87 191.66)" stroke="#E8E8E8"/>
<ellipse cx="2.23584" cy="2.23671" rx="2.23584" ry="2.23671" transform="translate(270.739 211.035) rotate(-90)" fill="url(#paint14_linear)"/>
<path d="M0 0V4.47169" transform="translate(272.976 206.562)" stroke="#E8E8E8"/>
<ellipse cx="2.23584" cy="2.23671" rx="2.23584" ry="2.23671" transform="translate(242.407 219.977) rotate(-90)" fill="url(#paint15_linear)"/>
<path d="M0 0V4.47169" transform="translate(244.644 215.504)" stroke="#E8E8E8"/>
<ellipse cx="2.23584" cy="2.23671" rx="2.23584" ry="2.23671" transform="translate(215.567 211.035) rotate(-90)" fill="url(#paint16_linear)"/>
<path d="M0 0V4.47169" transform="translate(217.804 206.562)" stroke="#E8E8E8"/>
<ellipse cx="2.23584" cy="2.23671" rx="2.23584" ry="2.23671" transform="translate(197.674 196.133) rotate(-90)" fill="url(#paint17_linear)"/>
<path d="M0 0V4.47169" transform="translate(199.911 191.66)" stroke="#E8E8E8"/>
<ellipse cx="2.23584" cy="2.23671" rx="2.23584" ry="2.23671" transform="translate(200.656 124.586) rotate(-90)" fill="url(#paint18_linear)"/>
<path d="M0 0V4.47169" transform="translate(202.893 120.113)" stroke="#E8E8E8"/>
<ellipse cx="2.23584" cy="2.23671" rx="2.23584" ry="2.23671" transform="translate(284.16 124.586) rotate(-90)" fill="url(#paint19_linear)"/>
<path d="M0 0V4.47169" transform="translate(286.396 120.113)" stroke="#E8E8E8"/>
<ellipse cx="2.23584" cy="2.23671" rx="2.23584" ry="2.23671" transform="translate(296.089 142.473) rotate(-90)" fill="url(#paint20_linear)"/>
<path d="M0 0V4.47169" transform="translate(298.326 138)" stroke="#E8E8E8"/>
<ellipse cx="2.23584" cy="2.23671" rx="2.23584" ry="2.23671" transform="translate(190.218 142.473) rotate(-90)" fill="url(#paint21_linear)"/>
<path d="M0 0V4.47169" transform="translate(192.455 138)" stroke="#E8E8E8"/>
<g filter="url(#filter0_d)">
<ellipse cx="47.7165" cy="47.698" rx="47.7165" ry="47.698" transform="translate(197.674 112.66)" fill="url(#paint22_radial)"/>
</g>
<path d="M32.7342 65.5982C28.3153 65.5982 24.0282 64.7308 19.9919 63.0201C16.0936 61.3681 12.5931 59.0033 9.58756 55.9917C6.58167 52.9797 4.22165 49.4721 2.57317 45.5666C0.86584 41.5219 0 37.2263 0 32.7991C0 28.3718 0.865646 24.0762 2.57297 20.0317C4.22146 16.1259 6.58148 12.6185 9.58717 9.60673C12.5929 6.59477 16.0934 4.23018 19.9913 2.57836C24.0276 0.867394 28.3146 0 32.733 0C37.1641 0 41.4575 0.867394 45.4938 2.57817C49.2216 4.15795 52.7218 6.51609 55.8972 9.58721L53.7324 11.8349C50.7927 8.99196 47.7007 6.90498 44.2794 5.45523C40.6292 3.90805 36.7446 3.12363 32.733 3.12363C28.734 3.12363 24.8557 3.90805 21.2057 5.45503C17.6794 6.9493 14.512 9.08938 11.7915 11.8153C9.07106 14.5413 6.93549 17.7151 5.44404 21.2485C3.90018 24.9059 3.11734 28.7921 3.11734 32.7991C3.11734 36.8062 3.90018 40.6921 5.44423 44.3497C6.93549 47.8831 9.07125 51.0568 11.7917 53.7829C14.512 56.5087 17.6796 58.6485 21.2061 60.1432C24.8561 61.6902 28.7348 62.4746 32.734 62.4746C36.7337 62.4746 40.6125 61.6902 44.2625 60.1432C47.7915 58.6476 50.9597 56.5077 53.679 53.7829C56.4049 51.0515 58.542 47.8773 60.0313 44.3493C61.5818 40.6769 62.3678 36.7027 62.3678 32.7981H65.4851C65.4851 37.2884 64.6163 41.5066 62.9026 45.566C61.2562 49.4662 58.8947 52.9739 55.8835 55.9911C52.879 59.0019 49.3776 61.3667 45.4771 63.0197C41.4407 64.7306 37.1534 65.5982 32.7342 65.5982Z" transform="matrix(0.500145 -0.865941 0.866865 0.498543 199.354 174.289)" fill="white"/>
<path d="M17.1453 17.18H0V14.0563H14.028V0H17.1453V17.18Z" transform="matrix(0.500145 -0.865941 0.866865 0.498543 229.276 135.754)" fill="white"/>
<path fill-rule="evenodd" clip-rule="evenodd" d="M92.1643 33.8906L131.663 16.9453L92.1643 0V10.0391H0V25H92.1643V33.8906Z" transform="translate(105.421 144.051)" fill="url(#paint23_linear)"/>
<path fill-rule="evenodd" clip-rule="evenodd" d="M62.4338 22.5938L89.1912 11.2969L62.4338 0V6.69141H0V16.668H62.4338V22.5938Z" transform="translate(126.657 177.941)" fill="url(#paint24_linear)"/>
<path fill-rule="evenodd" clip-rule="evenodd" d="M50.5415 16.9453L72.2021 8.47266L50.5415 0V5.01953H0V12.5H50.5415V16.9453Z" transform="translate(135.151 124.281)" fill="url(#paint25_linear)"/>
<path fill-rule="evenodd" clip-rule="evenodd" d="M104.38 0H0V146.027H104.38V0ZM15.9589 15.2279C17.6263 15.2279 18.978 13.8269 18.978 12.0928C18.978 10.3633 17.6263 8.95783 15.9589 8.95783C14.2913 8.95783 12.9395 10.3633 12.9395 12.0928C12.9395 13.8269 14.2913 15.2279 15.9589 15.2279ZM37.0937 12.0928C37.0937 13.8269 35.742 15.2279 34.0746 15.2279C32.4069 15.2279 31.0552 13.8269 31.0552 12.0928C31.0552 10.3633 32.4069 8.95783 34.0746 8.95783C35.742 8.95783 37.0937 10.3633 37.0937 12.0928ZM52.19 15.2279C53.8574 15.2279 55.2091 13.8269 55.2091 12.0928C55.2091 10.3633 53.8574 8.95783 52.19 8.95783C50.5223 8.95783 49.1706 10.3633 49.1706 12.0928C49.1706 13.8269 50.5223 15.2279 52.19 15.2279ZM73.3248 12.0928C73.3248 13.8269 71.9731 15.2279 70.3057 15.2279C68.638 15.2279 67.2863 13.8269 67.2863 12.0928C67.2863 10.3633 68.638 8.95783 70.3057 8.95783C71.9731 8.95783 73.3248 10.3633 73.3248 12.0928ZM88.4211 15.2279C90.0885 15.2279 91.4402 13.8269 91.4402 12.0928C91.4402 10.3633 90.0885 8.95783 88.4211 8.95783C86.7534 8.95783 85.4017 10.3633 85.4017 12.0928C85.4017 13.8269 86.7534 15.2279 88.4211 15.2279ZM18.978 27.3253C18.978 29.0593 17.6263 30.4603 15.9589 30.4603C14.2913 30.4603 12.9395 29.0593 12.9395 27.3253C12.9395 25.5958 14.2913 24.1902 15.9589 24.1902C17.6263 24.1902 18.978 25.5958 18.978 27.3253ZM34.0746 30.4603C35.742 30.4603 37.0937 29.0593 37.0937 27.3253C37.0937 25.5958 35.742 24.1902 34.0746 24.1902C32.4069 24.1902 31.0552 25.5958 31.0552 27.3253C31.0552 29.0593 32.4069 30.4603 34.0746 30.4603ZM55.2091 27.3253C55.2091 29.0593 53.8574 30.4603 52.19 30.4603C50.5223 30.4603 49.1706 29.0593 49.1706 27.3253C49.1706 25.5958 50.5223 24.1902 52.19 24.1902C53.8574 24.1902 55.2091 25.5958 55.2091 27.3253ZM70.3057 30.4603C71.9731 30.4603 73.3248 29.0593 73.3248 27.3253C73.3248 25.5958 71.9731 24.1902 70.3057 24.1902C68.638 24.1902 67.2863 25.5958 67.2863 27.3253C67.2863 29.0593 68.638 30.4603 70.3057 30.4603ZM91.4402 27.3253C91.4402 29.0593 90.0885 30.4603 88.4211 30.4603C86.7534 30.4603 85.4017 29.0593 85.4017 27.3253C85.4017 25.5958 86.7534 24.1902 88.4211 24.1902C90.0885 24.1902 91.4402 25.5958 91.4402 27.3253ZM15.9589 45.6881C17.6263 45.6881 18.978 44.2872 18.978 42.5531C18.978 40.8236 17.6263 39.4181 15.9589 39.4181C14.2913 39.4181 12.9395 40.8236 12.9395 42.5531C12.9395 44.2872 14.2913 45.6881 15.9589 45.6881ZM37.0937 42.5531C37.0937 44.2872 35.742 45.6881 34.0746 45.6881C32.4069 45.6881 31.0552 44.2872 31.0552 42.5531C31.0552 40.8236 32.4069 39.4181 34.0746 39.4181C35.742 39.4181 37.0937 40.8236 37.0937 42.5531ZM52.19 45.6881C53.8574 45.6881 55.2091 44.2872 55.2091 42.5531C55.2091 40.8236 53.8574 39.4181 52.19 39.4181C50.5223 39.4181 49.1706 40.8236 49.1706 42.5531C49.1706 44.2872 50.5223 45.6881 52.19 45.6881ZM73.3248 42.5531C73.3248 44.2872 71.9731 45.6881 70.3057 45.6881C68.638 45.6881 67.2863 44.2872 67.2863 42.5531C67.2863 40.8236 68.638 39.4181 70.3057 39.4181C71.9731 39.4181 73.3248 40.8236 73.3248 42.5531ZM88.4211 45.6881C90.0885 45.6881 91.4402 44.2872 91.4402 42.5531C91.4402 40.8236 90.0885 39.4181 88.4211 39.4181C86.7534 39.4181 85.4017 40.8236 85.4017 42.5531C85.4017 44.2872 86.7534 45.6881 88.4211 45.6881ZM18.978 57.781C18.978 59.515 17.6263 60.916 15.9589 60.916C14.2913 60.916 12.9395 59.515 12.9395 57.781C12.9395 56.0515 14.2913 54.6459 15.9589 54.6459C17.6263 54.6459 18.978 56.0515 18.978 57.781ZM34.0746 60.916C35.742 60.916 37.0937 59.515 37.0937 57.781C37.0937 56.0515 35.742 54.6459 34.0746 54.6459C32.4069 54.6459 31.0552 56.0515 31.0552 57.781C31.0552 59.515 32.4069 60.916 34.0746 60.916ZM55.2091 57.781C55.2091 59.515 53.8574 60.916 52.19 60.916C50.5223 60.916 49.1706 59.515 49.1706 57.781C49.1706 56.0515 50.5223 54.6459 52.19 54.6459C53.8574 54.6459 55.2091 56.0515 55.2091 57.781ZM70.3057 60.916C71.9731 60.916 73.3248 59.515 73.3248 57.781C73.3248 56.0515 71.9731 54.6459 70.3057 54.6459C68.638 54.6459 67.2863 56.0515 67.2863 57.781C67.2863 59.515 68.638 60.916 70.3057 60.916ZM91.4402 57.781C91.4402 59.515 90.0885 60.916 88.4211 60.916C86.7534 60.916 85.4017 59.515 85.4017 57.781C85.4017 56.0515 86.7534 54.6459 88.4211 54.6459C90.0885 54.6459 91.4402 56.0515 91.4402 57.781ZM15.9589 76.1484C17.6263 76.1484 18.978 74.7474 18.978 73.0134C18.978 71.2839 17.6263 69.8784 15.9589 69.8784C14.2913 69.8784 12.9395 71.2839 12.9395 73.0134C12.9395 74.7474 14.2913 76.1484 15.9589 76.1484ZM37.0937 73.0134C37.0937 74.7474 35.742 76.1484 34.0746 76.1484C32.4069 76.1484 31.0552 74.7474 31.0552 73.0134C31.0552 71.2839 32.4069 69.8784 34.0746 69.8784C35.742 69.8784 37.0937 71.2839 37.0937 73.0134ZM52.19 76.1484C53.8574 76.1484 55.2091 74.7474 55.2091 73.0134C55.2091 71.2839 53.8574 69.8784 52.19 69.8784C50.5223 69.8784 49.1706 71.2839 49.1706 73.0134C49.1706 74.7474 50.5223 76.1484 52.19 76.1484ZM73.3248 73.0134C73.3248 74.7474 71.9731 76.1484 70.3057 76.1484C68.638 76.1484 67.2863 74.7474 67.2863 73.0134C67.2863 71.2839 68.638 69.8784 70.3057 69.8784C71.9731 69.8784 73.3248 71.2839 73.3248 73.0134ZM88.4211 76.1484C90.0885 76.1484 91.4402 74.7474 91.4402 73.0134C91.4402 71.2839 90.0885 69.8784 88.4211 69.8784C86.7534 69.8784 85.4017 71.2839 85.4017 73.0134C85.4017 74.7474 86.7534 76.1484 88.4211 76.1484ZM18.978 88.2412C18.978 89.9753 17.6263 91.3762 15.9589 91.3762C14.2913 91.3762 12.9395 89.9753 12.9395 88.2412C12.9395 86.5117 14.2913 85.1062 15.9589 85.1062C17.6263 85.1062 18.978 86.5117 18.978 88.2412ZM34.0746 91.3762C35.742 91.3762 37.0937 89.9753 37.0937 88.2412C37.0937 86.5117 35.742 85.1062 34.0746 85.1062C32.4069 85.1062 31.0552 86.5117 31.0552 88.2412C31.0552 89.9753 32.4069 91.3762 34.0746 91.3762ZM55.2091 88.2412C55.2091 89.9753 53.8574 91.3762 52.19 91.3762C50.5223 91.3762 49.1706 89.9753 49.1706 88.2412C49.1706 86.5117 50.5223 85.1062 52.19 85.1062C53.8574 85.1062 55.2091 86.5117 55.2091 88.2412ZM70.3057 91.3762C71.9731 91.3762 73.3248 89.9753 73.3248 88.2412C73.3248 86.5117 71.9731 85.1062 70.3057 85.1062C68.638 85.1062 67.2863 86.5117 67.2863 88.2412C67.2863 89.9753 68.638 91.3762 70.3057 91.3762ZM91.4402 88.2412C91.4402 89.9753 90.0885 91.3762 88.4211 91.3762C86.7534 91.3762 85.4017 89.9753 85.4017 88.2412C85.4017 86.5117 86.7534 85.1062 88.4211 85.1062C90.0885 85.1062 91.4402 86.5117 91.4402 88.2412ZM15.9589 106.609C17.6263 106.609 18.978 105.208 18.978 103.474C18.978 101.744 17.6263 100.339 15.9589 100.339C14.2913 100.339 12.9395 101.744 12.9395 103.474C12.9395 105.208 14.2913 106.609 15.9589 106.609ZM37.0937 103.474C37.0937 105.208 35.742 106.609 34.0746 106.609C32.4069 106.609 31.0552 105.208 31.0552 103.474C31.0552 101.744 32.4069 100.339 34.0746 100.339C35.742 100.339 37.0937 101.744 37.0937 103.474ZM52.19 106.609C53.8574 106.609 55.2091 105.208 55.2091 103.474C55.2091 101.744 53.8574 100.339 52.19 100.339C50.5223 100.339 49.1706 101.744 49.1706 103.474C49.1706 105.208 50.5223 106.609 52.19 106.609ZM73.3248 103.474C73.3248 105.208 71.9731 106.609 70.3057 106.609C68.638 106.609 67.2863 105.208 67.2863 103.474C67.2863 101.744 68.638 100.339 70.3057 100.339C71.9731 100.339 73.3248 101.744 73.3248 103.474ZM88.4211 106.609C90.0885 106.609 91.4402 105.208 91.4402 103.474C91.4402 101.744 90.0885 100.339 88.4211 100.339C86.7534 100.339 85.4017 101.744 85.4017 103.474C85.4017 105.208 86.7534 106.609 88.4211 106.609ZM18.978 118.701C18.978 120.436 17.6263 121.837 15.9589 121.837C14.2913 121.837 12.9395 120.436 12.9395 118.701C12.9395 116.972 14.2913 115.566 15.9589 115.566C17.6263 115.566 18.978 116.972 18.978 118.701ZM34.0746 121.837C35.742 121.837 37.0937 120.436 37.0937 118.701C37.0937 116.972 35.742 115.566 34.0746 115.566C32.4069 115.566 31.0552 116.972 31.0552 118.701C31.0552 120.436 32.4069 121.837 34.0746 121.837ZM55.2091 118.701C55.2091 120.436 53.8574 121.837 52.19 121.837C50.5223 121.837 49.1706 120.436 49.1706 118.701C49.1706 116.972 50.5223 115.566 52.19 115.566C53.8574 115.566 55.2091 116.972 55.2091 118.701ZM70.3057 121.837C71.9731 121.837 73.3248 120.436 73.3248 118.701C73.3248 116.972 71.9731 115.566 70.3057 115.566C68.638 115.566 67.2863 116.972 67.2863 118.701C67.2863 120.436 68.638 121.837 70.3057 121.837ZM91.4402 118.701C91.4402 120.436 90.0885 121.837 88.4211 121.837C86.7534 121.837 85.4017 120.436 85.4017 118.701C85.4017 116.972 86.7534 115.566 88.4211 115.566C90.0885 115.566 91.4402 116.972 91.4402 118.701ZM15.9589 137.069C17.6263 137.069 18.978 135.668 18.978 133.934C18.978 132.204 17.6263 130.799 15.9589 130.799C14.2913 130.799 12.9395 132.204 12.9395 133.934C12.9395 135.668 14.2913 137.069 15.9589 137.069ZM37.0937 133.934C37.0937 135.668 35.742 137.069 34.0746 137.069C32.4069 137.069 31.0552 135.668 31.0552 133.934C31.0552 132.204 32.4069 130.799 34.0746 130.799C35.742 130.799 37.0937 132.204 37.0937 133.934ZM52.19 137.069C53.8574 137.069 55.2091 135.668 55.2091 133.934C55.2091 132.204 53.8574 130.799 52.19 130.799C50.5223 130.799 49.1706 132.204 49.1706 133.934C49.1706 135.668 50.5223 137.069 52.19 137.069ZM73.3248 133.934C73.3248 135.668 71.9731 137.069 70.3057 137.069C68.638 137.069 67.2863 135.668 67.2863 133.934C67.2863 132.204 68.638 130.799 70.3057 130.799C71.9731 130.799 73.3248 132.204 73.3248 133.934ZM88.4211 137.069C90.0885 137.069 91.4402 135.668 91.4402 133.934C91.4402 132.204 90.0885 130.799 88.4211 130.799C86.7534 130.799 85.4017 132.204 85.4017 133.934C85.4017 135.668 86.7534 137.069 88.4211 137.069Z" transform="translate(66.6519 88.6602)" fill="#CAC3C3"/>
<g filter="url(#filter1_d)">
<path fill-rule="evenodd" clip-rule="evenodd" d="M104.38 0H0V146.027H104.38V0ZM15.9589 15.2279C17.6263 15.2279 18.978 13.8269 18.978 12.0928C18.978 10.3633 17.6263 8.95783 15.9589 8.95783C14.2913 8.95783 12.9395 10.3633 12.9395 12.0928C12.9395 13.8269 14.2913 15.2279 15.9589 15.2279ZM37.0937 12.0928C37.0937 13.8269 35.742 15.2279 34.0746 15.2279C32.4069 15.2279 31.0552 13.8269 31.0552 12.0928C31.0552 10.3633 32.4069 8.95783 34.0746 8.95783C35.742 8.95783 37.0937 10.3633 37.0937 12.0928ZM52.19 15.2279C53.8574 15.2279 55.2091 13.8269 55.2091 12.0928C55.2091 10.3633 53.8574 8.95783 52.19 8.95783C50.5223 8.95783 49.1706 10.3633 49.1706 12.0928C49.1706 13.8269 50.5223 15.2279 52.19 15.2279ZM73.3248 12.0928C73.3248 13.8269 71.9731 15.2279 70.3057 15.2279C68.638 15.2279 67.2863 13.8269 67.2863 12.0928C67.2863 10.3633 68.638 8.95783 70.3057 8.95783C71.9731 8.95783 73.3248 10.3633 73.3248 12.0928ZM88.4211 15.2279C90.0885 15.2279 91.4402 13.8269 91.4402 12.0928C91.4402 10.3633 90.0885 8.95783 88.4211 8.95783C86.7534 8.95783 85.4017 10.3633 85.4017 12.0928C85.4017 13.8269 86.7534 15.2279 88.4211 15.2279ZM18.978 27.3253C18.978 29.0593 17.6263 30.4603 15.9589 30.4603C14.2913 30.4603 12.9395 29.0593 12.9395 27.3253C12.9395 25.5958 14.2913 24.1902 15.9589 24.1902C17.6263 24.1902 18.978 25.5958 18.978 27.3253ZM34.0746 30.4603C35.742 30.4603 37.0937 29.0593 37.0937 27.3253C37.0937 25.5958 35.742 24.1902 34.0746 24.1902C32.4069 24.1902 31.0552 25.5958 31.0552 27.3253C31.0552 29.0593 32.4069 30.4603 34.0746 30.4603ZM55.2091 27.3253C55.2091 29.0593 53.8574 30.4603 52.19 30.4603C50.5223 30.4603 49.1706 29.0593 49.1706 27.3253C49.1706 25.5958 50.5223 24.1902 52.19 24.1902C53.8574 24.1902 55.2091 25.5958 55.2091 27.3253ZM70.3057 30.4603C71.9731 30.4603 73.3248 29.0593 73.3248 27.3253C73.3248 25.5958 71.9731 24.1902 70.3057 24.1902C68.638 24.1902 67.2863 25.5958 67.2863 27.3253C67.2863 29.0593 68.638 30.4603 70.3057 30.4603ZM91.4402 27.3253C91.4402 29.0593 90.0885 30.4603 88.4211 30.4603C86.7534 30.4603 85.4017 29.0593 85.4017 27.3253C85.4017 25.5958 86.7534 24.1902 88.4211 24.1902C90.0885 24.1902 91.4402 25.5958 91.4402 27.3253ZM15.9589 45.6881C17.6263 45.6881 18.978 44.2872 18.978 42.5531C18.978 40.8236 17.6263 39.4181 15.9589 39.4181C14.2913 39.4181 12.9395 40.8236 12.9395 42.5531C12.9395 44.2872 14.2913 45.6881 15.9589 45.6881ZM37.0937 42.5531C37.0937 44.2872 35.742 45.6881 34.0746 45.6881C32.4069 45.6881 31.0552 44.2872 31.0552 42.5531C31.0552 40.8236 32.4069 39.4181 34.0746 39.4181C35.742 39.4181 37.0937 40.8236 37.0937 42.5531ZM52.19 45.6881C53.8574 45.6881 55.2091 44.2872 55.2091 42.5531C55.2091 40.8236 53.8574 39.4181 52.19 39.4181C50.5223 39.4181 49.1706 40.8236 49.1706 42.5531C49.1706 44.2872 50.5223 45.6881 52.19 45.6881ZM73.3248 42.5531C73.3248 44.2872 71.9731 45.6881 70.3057 45.6881C68.638 45.6881 67.2863 44.2872 67.2863 42.5531C67.2863 40.8236 68.638 39.4181 70.3057 39.4181C71.9731 39.4181 73.3248 40.8236 73.3248 42.5531ZM88.4211 45.6881C90.0885 45.6881 91.4402 44.2872 91.4402 42.5531C91.4402 40.8236 90.0885 39.4181 88.4211 39.4181C86.7534 39.4181 85.4017 40.8236 85.4017 42.5531C85.4017 44.2872 86.7534 45.6881 88.4211 45.6881ZM18.978 57.781C18.978 59.515 17.6263 60.916 15.9589 60.916C14.2913 60.916 12.9395 59.515 12.9395 57.781C12.9395 56.0515 14.2913 54.6459 15.9589 54.6459C17.6263 54.6459 18.978 56.0515 18.978 57.781ZM34.0746 60.916C35.742 60.916 37.0937 59.515 37.0937 57.781C37.0937 56.0515 35.742 54.6459 34.0746 54.6459C32.4069 54.6459 31.0552 56.0515 31.0552 57.781C31.0552 59.515 32.4069 60.916 34.0746 60.916ZM55.2091 57.781C55.2091 59.515 53.8574 60.916 52.19 60.916C50.5223 60.916 49.1706 59.515 49.1706 57.781C49.1706 56.0515 50.5223 54.6459 52.19 54.6459C53.8574 54.6459 55.2091 56.0515 55.2091 57.781ZM70.3057 60.916C71.9731 60.916 73.3248 59.515 73.3248 57.781C73.3248 56.0515 71.9731 54.6459 70.3057 54.6459C68.638 54.6459 67.2863 56.0515 67.2863 57.781C67.2863 59.515 68.638 60.916 70.3057 60.916ZM91.4402 57.781C91.4402 59.515 90.0885 60.916 88.4211 60.916C86.7534 60.916 85.4017 59.515 85.4017 57.781C85.4017 56.0515 86.7534 54.6459 88.4211 54.6459C90.0885 54.6459 91.4402 56.0515 91.4402 57.781ZM15.9589 76.1484C17.6263 76.1484 18.978 74.7474 18.978 73.0134C18.978 71.2839 17.6263 69.8784 15.9589 69.8784C14.2913 69.8784 12.9395 71.2839 12.9395 73.0134C12.9395 74.7474 14.2913 76.1484 15.9589 76.1484ZM37.0937 73.0134C37.0937 74.7474 35.742 76.1484 34.0746 76.1484C32.4069 76.1484 31.0552 74.7474 31.0552 73.0134C31.0552 71.2839 32.4069 69.8784 34.0746 69.8784C35.742 69.8784 37.0937 71.2839 37.0937 73.0134ZM52.19 76.1484C53.8574 76.1484 55.2091 74.7474 55.2091 73.0134C55.2091 71.2839 53.8574 69.8784 52.19 69.8784C50.5223 69.8784 49.1706 71.2839 49.1706 73.0134C49.1706 74.7474 50.5223 76.1484 52.19 76.1484ZM73.3248 73.0134C73.3248 74.7474 71.9731 76.1484 70.3057 76.1484C68.638 76.1484 67.2863 74.7474 67.2863 73.0134C67.2863 71.2839 68.638 69.8784 70.3057 69.8784C71.9731 69.8784 73.3248 71.2839 73.3248 73.0134ZM88.4211 76.1484C90.0885 76.1484 91.4402 74.7474 91.4402 73.0134C91.4402 71.2839 90.0885 69.8784 88.4211 69.8784C86.7534 69.8784 85.4017 71.2839 85.4017 73.0134C85.4017 74.7474 86.7534 76.1484 88.4211 76.1484ZM18.978 88.2412C18.978 89.9753 17.6263 91.3762 15.9589 91.3762C14.2913 91.3762 12.9395 89.9753 12.9395 88.2412C12.9395 86.5117 14.2913 85.1062 15.9589 85.1062C17.6263 85.1062 18.978 86.5117 18.978 88.2412ZM34.0746 91.3762C35.742 91.3762 37.0937 89.9753 37.0937 88.2412C37.0937 86.5117 35.742 85.1062 34.0746 85.1062C32.4069 85.1062 31.0552 86.5117 31.0552 88.2412C31.0552 89.9753 32.4069 91.3762 34.0746 91.3762ZM55.2091 88.2412C55.2091 89.9753 53.8574 91.3762 52.19 91.3762C50.5223 91.3762 49.1706 89.9753 49.1706 88.2412C49.1706 86.5117 50.5223 85.1062 52.19 85.1062C53.8574 85.1062 55.2091 86.5117 55.2091 88.2412ZM70.3057 91.3762C71.9731 91.3762 73.3248 89.9753 73.3248 88.2412C73.3248 86.5117 71.9731 85.1062 70.3057 85.1062C68.638 85.1062 67.2863 86.5117 67.2863 88.2412C67.2863 89.9753 68.638 91.3762 70.3057 91.3762ZM91.4402 88.2412C91.4402 89.9753 90.0885 91.3762 88.4211 91.3762C86.7534 91.3762 85.4017 89.9753 85.4017 88.2412C85.4017 86.5117 86.7534 85.1062 88.4211 85.1062C90.0885 85.1062 91.4402 86.5117 91.4402 88.2412ZM15.9589 106.609C17.6263 106.609 18.978 105.208 18.978 103.474C18.978 101.744 17.6263 100.339 15.9589 100.339C14.2913 100.339 12.9395 101.744 12.9395 103.474C12.9395 105.208 14.2913 106.609 15.9589 106.609ZM37.0937 103.474C37.0937 105.208 35.742 106.609 34.0746 106.609C32.4069 106.609 31.0552 105.208 31.0552 103.474C31.0552 101.744 32.4069 100.339 34.0746 100.339C35.742 100.339 37.0937 101.744 37.0937 103.474ZM52.19 106.609C53.8574 106.609 55.2091 105.208 55.2091 103.474C55.2091 101.744 53.8574 100.339 52.19 100.339C50.5223 100.339 49.1706 101.744 49.1706 103.474C49.1706 105.208 50.5223 106.609 52.19 106.609ZM73.3248 103.474C73.3248 105.208 71.9731 106.609 70.3057 106.609C68.638 106.609 67.2863 105.208 67.2863 103.474C67.2863 101.744 68.638 100.339 70.3057 100.339C71.9731 100.339 73.3248 101.744 73.3248 103.474ZM88.4211 106.609C90.0885 106.609 91.4402 105.208 91.4402 103.474C91.4402 101.744 90.0885 100.339 88.4211 100.339C86.7534 100.339 85.4017 101.744 85.4017 103.474C85.4017 105.208 86.7534 106.609 88.4211 106.609ZM18.978 118.701C18.978 120.436 17.6263 121.837 15.9589 121.837C14.2913 121.837 12.9395 120.436 12.9395 118.701C12.9395 116.972 14.2913 115.566 15.9589 115.566C17.6263 115.566 18.978 116.972 18.978 118.701ZM34.0746 121.837C35.742 121.837 37.0937 120.436 37.0937 118.701C37.0937 116.972 35.742 115.566 34.0746 115.566C32.4069 115.566 31.0552 116.972 31.0552 118.701C31.0552 120.436 32.4069 121.837 34.0746 121.837ZM55.2091 118.701C55.2091 120.436 53.8574 121.837 52.19 121.837C50.5223 121.837 49.1706 120.436 49.1706 118.701C49.1706 116.972 50.5223 115.566 52.19 115.566C53.8574 115.566 55.2091 116.972 55.2091 118.701ZM70.3057 121.837C71.9731 121.837 73.3248 120.436 73.3248 118.701C73.3248 116.972 71.9731 115.566 70.3057 115.566C68.638 115.566 67.2863 116.972 67.2863 118.701C67.2863 120.436 68.638 121.837 70.3057 121.837ZM91.4402 118.701C91.4402 120.436 90.0885 121.837 88.4211 121.837C86.7534 121.837 85.4017 120.436 85.4017 118.701C85.4017 116.972 86.7534 115.566 88.4211 115.566C90.0885 115.566 91.4402 116.972 91.4402 118.701ZM15.9589 137.069C17.6263 137.069 18.978 135.668 18.978 133.934C18.978 132.204 17.6263 130.799 15.9589 130.799C14.2913 130.799 12.9395 132.204 12.9395 133.934C12.9395 135.668 14.2913 137.069 15.9589 137.069ZM37.0937 133.934C37.0937 135.668 35.742 137.069 34.0746 137.069C32.4069 137.069 31.0552 135.668 31.0552 133.934C31.0552 132.204 32.4069 130.799 34.0746 130.799C35.742 130.799 37.0937 132.204 37.0937 133.934ZM52.19 137.069C53.8574 137.069 55.2091 135.668 55.2091 133.934C55.2091 132.204 53.8574 130.799 52.19 130.799C50.5223 130.799 49.1706 132.204 49.1706 133.934C49.1706 135.668 50.5223 137.069 52.19 137.069ZM73.3248 133.934C73.3248 135.668 71.9731 137.069 70.3057 137.069C68.638 137.069 67.2863 135.668 67.2863 133.934C67.2863 132.204 68.638 130.799 70.3057 130.799C71.9731 130.799 73.3248 132.204 73.3248 133.934ZM88.4211 137.069C90.0885 137.069 91.4402 135.668 91.4402 133.934C91.4402 132.204 90.0885 130.799 88.4211 130.799C86.7534 130.799 85.4017 132.204 85.4017 133.934C85.4017 135.668 86.7534 137.069 88.4211 137.069Z" transform="translate(56.2139 81.6562)" fill="#CAC3C3"/>
</g>
<path fill-rule="evenodd" clip-rule="evenodd" d="M88.8406 32.4805L103.405 0L69.0215 10.1328L75.8147 17.793C59.968 27.6797 30.8882 47.5547 0 77.2969L28.6379 82.0625C31.0361 66.2422 51.9465 48.3164 81.6638 24.3867L88.8406 32.4805Z" transform="translate(15 146.609)" fill="url(#paint26_linear)"/>
<path fill-rule="evenodd" clip-rule="evenodd" d="M56.5063 19.9375L65.4331 0L44.3589 6.21875L48.0901 10.4336C26.0476 23.9102 0 50.8281 0 50.8281L17.553 53.7539C17.553 53.7539 36.854 29.4453 52.0042 14.8516L56.5063 19.9375Z" transform="translate(17.9409 140.676)" fill="url(#paint27_linear)"/>
<path fill-rule="evenodd" clip-rule="evenodd" d="M68.7122 19.9375L77.6389 0L56.5647 6.21875L60.282 10.418C48.1248 17.293 28.0852 33.0352 0 55.5664L17.553 58.4922C30.3379 43.7734 47.4863 29.3633 59.5076 19.2578C61.2695 17.7773 62.9214 16.3867 64.4331 15.1055L68.7122 19.9375Z" transform="translate(40.9048 180.508)" fill="url(#paint28_linear)"/>
</g>
<defs>
<filter id="filter0_d" x="189.674" y="104.66" width="111.433" height="111.396" filterUnits="userSpaceOnUse" color-interpolation-filters="sRGB">
<feFlood flood-opacity="0" result="BackgroundImageFix"/>
<feColorMatrix in="SourceAlpha" type="matrix" values="0 0 0 0 0 0 0 0 0 0 0 0 0 0 0 0 0 0 255 0"/>
<feOffset/>
<feGaussianBlur stdDeviation="4"/>
<feColorMatrix type="matrix" values="0 0 0 0 0 0 0 0 0 0 0 0 0 0 0 0 0 0 0.15 0"/>
<feBlend mode="normal" in2="BackgroundImageFix" result="effect1_dropShadow"/>
<feBlend mode="normal" in="SourceGraphic" in2="effect1_dropShadow" result="shape"/>
</filter>
<filter id="filter1_d" x="54.2139" y="77.6562" width="112.38" height="154.027" filterUnits="userSpaceOnUse" color-interpolation-filters="sRGB">
<feFlood flood-opacity="0" result="BackgroundImageFix"/>
<feColorMatrix in="SourceAlpha" type="matrix" values="0 0 0 0 0 0 0 0 0 0 0 0 0 0 0 0 0 0 255 0"/>
<feOffset dx="2"/>
<feGaussianBlur stdDeviation="2"/>
<feColorMatrix type="matrix" values="0 0 0 0 0 0 0 0 0 0 0 0 0 0 0 0 0 0 0.25 0"/>
<feBlend mode="normal" in2="BackgroundImageFix" result="effect1_dropShadow"/>
<feBlend mode="normal" in="SourceGraphic" in2="effect1_dropShadow" result="shape"/>
</filter>
<linearGradient id="paint0_linear" x2="1" gradientUnits="userSpaceOnUse" gradientTransform="translate(20.7766 42.2238) scale(20.7766 5.20929) rotate(-180)">
<stop stop-color="#BDBDBD"/>
<stop offset="0.496476" stop-color="#E0E0E0"/>
<stop offset="1" stop-color="#BDBDBD"/>
</linearGradient>
<linearGradient id="paint1_linear" x2="1" gradientUnits="userSpaceOnUse" gradientTransform="translate(12.9854) scale(12.9854 58.8284) rotate(90)">
<stop stop-color="#B9B9B9"/>
<stop offset="0.0828729" stop-color="#E0E0E0"/>
<stop offset="1" stop-color="#E0E0E0"/>
</linearGradient>
<linearGradient id="paint2_linear" x2="1" gradientUnits="userSpaceOnUse" gradientTransform="translate(11.0262) scale(10.0238 30.9701) rotate(90)">
<stop offset="0.253779" stop-color="white"/>
<stop offset="1" stop-color="white" stop-opacity="0"/>
</linearGradient>
<linearGradient id="paint3_linear" x2="1" gradientUnits="userSpaceOnUse" gradientTransform="translate(-0.413021 99.289) scale(9.58919 0.566349)">
<stop stop-color="#CDCDCD"/>
<stop offset="0.447514" stop-color="#E6E2E2"/>
<stop offset="1" stop-color="#DADADA"/>
</linearGradient>
<linearGradient id="paint4_linear" x2="1" gradientUnits="userSpaceOnUse" gradientTransform="translate(-0.413021 99.289) scale(9.58919 0.566349)">
<stop stop-color="#CDCDCD"/>
<stop offset="0.447514" stop-color="#E6E2E2"/>
<stop offset="1" stop-color="#DADADA"/>
</linearGradient>
<linearGradient id="paint5_linear" x2="1" gradientUnits="userSpaceOnUse" gradientTransform="matrix(112.547 98.0132 -98.0512 111.672 75.7744 -39.7715)">
<stop stop-color="#C3C3C3"/>
<stop offset="1" stop-color="#D9D9D9"/>
</linearGradient>
<linearGradient id="paint6_linear" x2="1" gradientUnits="userSpaceOnUse" gradientTransform="translate(4.47169) scale(4.47169 4.47342) rotate(90)">
<stop stop-color="#E3E3E3"/>
<stop offset="0.276243" stop-color="#F4F4F4"/>
<stop offset="0.403315" stop-color="#E8E8E8"/>
<stop offset="0.596685" stop-color="#F1F1F1"/>
<stop offset="0.745856" stop-color="#EDECEC"/>
</linearGradient>
<linearGradient id="paint7_linear" x2="1" gradientUnits="userSpaceOnUse" gradientTransform="translate(4.47169) scale(4.47169 4.47342) rotate(90)">
<stop stop-color="#E3E3E3"/>
<stop offset="0.276243" stop-color="#F4F4F4"/>
<stop offset="0.403315" stop-color="#E8E8E8"/>
<stop offset="0.596685" stop-color="#F1F1F1"/>
<stop offset="0.745856" stop-color="#EDECEC"/>
</linearGradient>
<linearGradient id="paint8_linear" x2="1" gradientUnits="userSpaceOnUse" gradientTransform="translate(4.47169) scale(4.47169 4.47342) rotate(90)">
<stop stop-color="#E3E3E3"/>
<stop offset="0.276243" stop-color="#F4F4F4"/>
<stop offset="0.403315" stop-color="#E8E8E8"/>
<stop offset="0.596685" stop-color="#F1F1F1"/>
<stop offset="0.745856" stop-color="#EDECEC"/>
</linearGradient>
<linearGradient id="paint9_linear" x2="1" gradientUnits="userSpaceOnUse" gradientTransform="translate(4.47169) scale(4.47169 4.47342) rotate(90)">
<stop stop-color="#E3E3E3"/>
<stop offset="0.276243" stop-color="#F4F4F4"/>
<stop offset="0.403315" stop-color="#E8E8E8"/>
<stop offset="0.596685" stop-color="#F1F1F1"/>
<stop offset="0.745856" stop-color="#EDECEC"/>
</linearGradient>
<linearGradient id="paint10_linear" x2="1" gradientUnits="userSpaceOnUse" gradientTransform="translate(4.47169) scale(4.47169 4.47342) rotate(90)">
<stop stop-color="#E3E3E3"/>
<stop offset="0.276243" stop-color="#F4F4F4"/>
<stop offset="0.403315" stop-color="#E8E8E8"/>
<stop offset="0.596685" stop-color="#F1F1F1"/>
<stop offset="0.745856" stop-color="#EDECEC"/>
</linearGradient>
<linearGradient id="paint11_linear" x2="1" gradientUnits="userSpaceOnUse" gradientTransform="translate(4.47169) scale(4.47169 4.47342) rotate(90)">
<stop stop-color="#E3E3E3"/>
<stop offset="0.276243" stop-color="#F4F4F4"/>
<stop offset="0.403315" stop-color="#E8E8E8"/>
<stop offset="0.596685" stop-color="#F1F1F1"/>
<stop offset="0.745856" stop-color="#EDECEC"/>
</linearGradient>
<linearGradient id="paint12_linear" x2="1" gradientUnits="userSpaceOnUse" gradientTransform="translate(4.47169) scale(4.47169 4.47342) rotate(90)">
<stop stop-color="#E3E3E3"/>
<stop offset="0.276243" stop-color="#F4F4F4"/>
<stop offset="0.403315" stop-color="#E8E8E8"/>
<stop offset="0.596685" stop-color="#F1F1F1"/>
<stop offset="0.745856" stop-color="#EDECEC"/>
</linearGradient>
<linearGradient id="paint13_linear" x2="1" gradientUnits="userSpaceOnUse" gradientTransform="translate(4.47169) scale(4.47169 4.47342) rotate(90)">
<stop stop-color="#E3E3E3"/>
<stop offset="0.276243" stop-color="#F4F4F4"/>
<stop offset="0.403315" stop-color="#E8E8E8"/>
<stop offset="0.596685" stop-color="#F1F1F1"/>
<stop offset="0.745856" stop-color="#EDECEC"/>
</linearGradient>
<linearGradient id="paint14_linear" x2="1" gradientUnits="userSpaceOnUse" gradientTransform="translate(4.47169) scale(4.47169 4.47342) rotate(90)">
<stop stop-color="#E3E3E3"/>
<stop offset="0.276243" stop-color="#F4F4F4"/>
<stop offset="0.403315" stop-color="#E8E8E8"/>
<stop offset="0.596685" stop-color="#F1F1F1"/>
<stop offset="0.745856" stop-color="#EDECEC"/>
</linearGradient>
<linearGradient id="paint15_linear" x2="1" gradientUnits="userSpaceOnUse" gradientTransform="translate(4.47169) scale(4.47169 4.47342) rotate(90)">
<stop stop-color="#E3E3E3"/>
<stop offset="0.276243" stop-color="#F4F4F4"/>
<stop offset="0.403315" stop-color="#E8E8E8"/>
<stop offset="0.596685" stop-color="#F1F1F1"/>
<stop offset="0.745856" stop-color="#EDECEC"/>
</linearGradient>
<linearGradient id="paint16_linear" x2="1" gradientUnits="userSpaceOnUse" gradientTransform="translate(4.47169) scale(4.47169 4.47342) rotate(90)">
<stop stop-color="#E3E3E3"/>
<stop offset="0.276243" stop-color="#F4F4F4"/>
<stop offset="0.403315" stop-color="#E8E8E8"/>
<stop offset="0.596685" stop-color="#F1F1F1"/>
<stop offset="0.745856" stop-color="#EDECEC"/>
</linearGradient>
<linearGradient id="paint17_linear" x2="1" gradientUnits="userSpaceOnUse" gradientTransform="translate(4.47169) scale(4.47169 4.47342) rotate(90)">
<stop stop-color="#E3E3E3"/>
<stop offset="0.276243" stop-color="#F4F4F4"/>
<stop offset="0.403315" stop-color="#E8E8E8"/>
<stop offset="0.596685" stop-color="#F1F1F1"/>
<stop offset="0.745856" stop-color="#EDECEC"/>
</linearGradient>
<linearGradient id="paint18_linear" x2="1" gradientUnits="userSpaceOnUse" gradientTransform="translate(4.47169) scale(4.47169 4.47342) rotate(90)">
<stop stop-color="#E3E3E3"/>
<stop offset="0.276243" stop-color="#F4F4F4"/>
<stop offset="0.403315" stop-color="#E8E8E8"/>
<stop offset="0.596685" stop-color="#F1F1F1"/>
<stop offset="0.745856" stop-color="#EDECEC"/>
</linearGradient>
<linearGradient id="paint19_linear" x2="1" gradientUnits="userSpaceOnUse" gradientTransform="translate(4.47169) scale(4.47169 4.47342) rotate(90)">
<stop stop-color="#E3E3E3"/>
<stop offset="0.276243" stop-color="#F4F4F4"/>
<stop offset="0.403315" stop-color="#E8E8E8"/>
<stop offset="0.596685" stop-color="#F1F1F1"/>
<stop offset="0.745856" stop-color="#EDECEC"/>
</linearGradient>
<linearGradient id="paint20_linear" x2="1" gradientUnits="userSpaceOnUse" gradientTransform="translate(4.47169) scale(4.47169 4.47342) rotate(90)">
<stop stop-color="#E3E3E3"/>
<stop offset="0.276243" stop-color="#F4F4F4"/>
<stop offset="0.403315" stop-color="#E8E8E8"/>
<stop offset="0.596685" stop-color="#F1F1F1"/>
<stop offset="0.745856" stop-color="#EDECEC"/>
</linearGradient>
<linearGradient id="paint21_linear" x2="1" gradientUnits="userSpaceOnUse" gradientTransform="translate(4.47169) scale(4.47169 4.47342) rotate(90)">
<stop stop-color="#E3E3E3"/>
<stop offset="0.276243" stop-color="#F4F4F4"/>
<stop offset="0.403315" stop-color="#E8E8E8"/>
<stop offset="0.596685" stop-color="#F1F1F1"/>
<stop offset="0.745856" stop-color="#EDECEC"/>
</linearGradient>
<radialGradient id="paint22_radial" cx="0.5" cy="0.5" r="0.5" gradientUnits="userSpaceOnUse" gradientTransform="translate(95.4331) scale(95.4331 95.3961) rotate(90)">
<stop stop-color="#E1E1E1"/>
<stop offset="1" stop-color="#E1E1E1"/>
</radialGradient>
<linearGradient id="paint23_linear" x2="1" gradientUnits="userSpaceOnUse" gradientTransform="matrix(-120.214 1.72646 -6.70718 -471.992 112.691 251.215)">
<stop offset="0.0882871" stop-color="white"/>
<stop offset="0.50495" stop-color="white" stop-opacity="0"/>
</linearGradient>
<linearGradient id="paint24_linear" x2="1" gradientUnits="userSpaceOnUse" gradientTransform="matrix(-81.4354 1.15097 -4.54357 -314.661 76.3392 167.476)">
<stop offset="0.0882871" stop-color="white"/>
<stop offset="0.50495" stop-color="white" stop-opacity="0"/>
</linearGradient>
<linearGradient id="paint25_linear" x2="1" gradientUnits="userSpaceOnUse" gradientTransform="matrix(-65.9237 0.863228 -3.67812 -235.996 61.7982 125.607)">
<stop offset="0.0882871" stop-color="white"/>
<stop offset="0.50495" stop-color="white" stop-opacity="0"/>
</linearGradient>
<linearGradient id="paint26_linear" x2="1" gradientUnits="userSpaceOnUse" gradientTransform="matrix(-92.5449 74.4736 -93.8422 -68.6947 150.403 35.6556)">
<stop stop-color="#EAEAEA"/>
<stop offset="0.825831" stop-color="white" stop-opacity="0"/>
</linearGradient>
<linearGradient id="paint27_linear" x2="1" gradientUnits="userSpaceOnUse" gradientTransform="matrix(-58.5611 48.7829 -59.382 -44.9975 95.1732 23.3557)">
<stop stop-color="#EAEAEA"/>
<stop offset="0.825831" stop-color="white" stop-opacity="0"/>
</linearGradient>
<linearGradient id="paint28_linear" x2="1" gradientUnits="userSpaceOnUse" gradientTransform="matrix(-70.0255 53.1333 -71.0071 -49.0104 113.201 25.4386)">
<stop stop-color="#EAEAEA"/>
<stop offset="0.825831" stop-color="white" stop-opacity="0"/>
</linearGradient>
</defs>
</svg>
