<svg width="279" height="18" viewBox="0 0 279 18" fill="none" xmlns="http://www.w3.org/2000/svg">
<circle cx="1.5" cy="1.5" r="1.5" transform="translate(40 1)" fill="#AEC0C8"/>
<circle cx="1.5" cy="1.5" r="1.5" transform="translate(32 1)" fill="#AEC0C8"/>
<circle cx="1.5" cy="1.5" r="1.5" transform="translate(24 1)" fill="#AEC0C8"/>
<circle cx="1.5" cy="1.5" r="1.5" transform="translate(16 1)" fill="#AEC0C8"/>
<circle cx="1.5" cy="1.5" r="1.5" transform="translate(8 1)" fill="#AEC0C8"/>
<circle cx="2.5" cy="2.5" r="2.5" fill="#AEC0C8"/>
<circle cx="1.5" cy="1.5" r="1.5" transform="translate(48 1)" fill="#AEC0C8"/>
<circle cx="1.5" cy="1.5" r="1.5" transform="translate(56 1)" fill="#AEC0C8"/>
<circle cx="1.5" cy="1.5" r="1.5" transform="translate(64 1)" fill="#AEC0C8"/>
<circle cx="1.5" cy="1.5" r="1.5" transform="translate(72 1)" fill="#AEC0C8"/>
<circle cx="1.5" cy="1.5" r="1.5" transform="translate(80 1)" fill="#AEC0C8"/>
<circle cx="1.5" cy="1.5" r="1.5" transform="translate(88 1)" fill="#AEC0C8"/>
<circle cx="1.5" cy="1.5" r="1.5" transform="translate(96 1)" fill="#AEC0C8"/>
<circle cx="1.5" cy="1.5" r="1.5" transform="translate(104 1)" fill="#AEC0C8"/>
<circle cx="1.5" cy="1.5" r="1.5" transform="translate(112 1)" fill="#AEC0C8"/>
<circle cx="1.5" cy="1.5" r="1.5" transform="translate(120 1)" fill="#AEC0C8"/>
<circle cx="1.5" cy="1.5" r="1.5" transform="translate(128 1)" fill="#AEC0C8"/>
<circle cx="1.5" cy="1.5" r="1.5" transform="translate(136 1)" fill="#AEC0C8"/>
<circle cx="2.5" cy="2.5" r="2.5" transform="translate(144)" fill="#AEC0C8"/>
<circle cx="1.5" cy="1.5" r="1.5" transform="translate(154 1)" fill="#AEC0C8"/>
<circle cx="1.5" cy="1.5" r="1.5" transform="translate(162 1)" fill="#AEC0C8"/>
<circle cx="1.5" cy="1.5" r="1.5" transform="translate(170 1)" fill="#AEC0C8"/>
<circle cx="1.5" cy="1.5" r="1.5" transform="translate(178 1)" fill="#AEC0C8"/>
<circle cx="1.5" cy="1.5" r="1.5" transform="translate(186 1)" fill="#AEC0C8"/>
<circle cx="1.5" cy="1.5" r="1.5" transform="translate(194 1)" fill="#AEC0C8"/>
<circle cx="1.5" cy="1.5" r="1.5" transform="translate(202 1)" fill="#AEC0C8"/>
<circle cx="1.5" cy="1.5" r="1.5" transform="translate(210 1)" fill="#AEC0C8"/>
<circle cx="1.5" cy="1.5" r="1.5" transform="translate(218 1)" fill="#AEC0C8"/>
<circle cx="1.5" cy="1.5" r="1.5" transform="translate(226 1)" fill="#AEC0C8"/>
<circle cx="1.5" cy="1.5" r="1.5" transform="translate(234 1)" fill="#AEC0C8"/>
<circle cx="1.5" cy="1.5" r="1.5" transform="translate(242 1)" fill="#AEC0C8"/>
<circle cx="1.5" cy="1.5" r="1.5" transform="translate(250 1)" fill="#AEC0C8"/>
<circle cx="1.5" cy="1.5" r="1.5" transform="translate(258 1)" fill="#AEC0C8"/>
<circle cx="1.5" cy="1.5" r="1.5" transform="translate(266 1)" fill="#AEC0C8"/>
<circle cx="2.5" cy="2.5" r="2.5" transform="translate(274)" fill="#AEC0C8"/>
<path d="M0 0V9" transform="translate(2.5 8)" stroke="#AEC0C8"/>
<path d="M0 0V9" transform="translate(146.5 9)" stroke="#AEC0C8"/>
<path d="M0 0V9" transform="translate(276.5 9)" stroke="#AEC0C8"/>
</svg>
