<svg width="20" height="24" viewBox="0 0 20 24" fill="none" xmlns="http://www.w3.org/2000/svg">
<mask id="mask0" mask-type="alpha" maskUnits="userSpaceOnUse" x="0" y="0" width="20" height="24">
<rect width="20" height="24" fill="#C4C4C4"/>
</mask>
<g mask="url(#mask0)">
<path fill-rule="evenodd" clip-rule="evenodd" d="M0 0L5.66656 3.88889L0 7.77778V0Z" transform="translate(12.1111 1.11328)" fill="#AEC0C8"/>
<path fill-rule="evenodd" clip-rule="evenodd" d="M0 0H12.222V2.22222H0V0Z" transform="translate(0.000244141 3.89062)" fill="#AEC0C8"/>
<path fill-rule="evenodd" clip-rule="evenodd" d="M0 10V0H2.22218V10H0Z" transform="translate(17.7778)" fill="#AEC0C8"/>
<path fill-rule="evenodd" clip-rule="evenodd" d="M0 0L5.66656 3.88889L0 7.77778V0Z" transform="translate(7.88916 18.8867) rotate(-180)" fill="#AEC0C8"/>
<path fill-rule="evenodd" clip-rule="evenodd" d="M0 0H12.222V2.22222H0V0Z" transform="translate(20 16.1094) rotate(180)" fill="#AEC0C8"/>
<path fill-rule="evenodd" clip-rule="evenodd" d="M0 10V0H2.22218V10H0Z" transform="translate(2.22217 20) rotate(-180)" fill="#AEC0C8"/>
</g>
</svg>
