<svg width="20" height="24" viewBox="0 0 20 24" fill="none" xmlns="http://www.w3.org/2000/svg">
<mask id="mask0" mask-type="alpha" maskUnits="userSpaceOnUse" x="0" y="0" width="20" height="24">
<rect width="20" height="24" fill="#C4C4C4"/>
</mask>
<g mask="url(#mask0)">
<path fill-rule="evenodd" clip-rule="evenodd" d="M14 0V18H0V16H9V0H14ZM12 3C12 3.55078 11.5522 4 11 4C10.4478 4 10 3.55078 10 3C10 2.44922 10.4478 2 11 2C11.5522 2 12 2.44922 12 3ZM11 8C11.5522 8 12 7.55078 12 7C12 6.44922 11.5522 6 11 6C10.4478 6 10 6.44922 10 7C10 7.55078 10.4478 8 11 8ZM12 11C12 11.5508 11.5522 12 11 12C10.4478 12 10 11.5508 10 11C10 10.4492 10.4478 10 11 10C11.5522 10 12 10.4492 12 11ZM11 16C11.5522 16 12 15.5508 12 15C12 14.4492 11.5522 14 11 14C10.4478 14 10 14.4492 10 15C10 15.5508 10.4478 16 11 16Z" transform="translate(4.5 2)" fill="#AEC0C8"/>
<path fill-rule="evenodd" clip-rule="evenodd" d="M0 0H14V18H0V0ZM4 3C4 3.55078 3.55225 4 3 4C2.44775 4 2 3.55078 2 3C2 2.44922 2.44775 2 3 2C3.55225 2 4 2.44922 4 3ZM7 4C7.55225 4 8 3.55078 8 3C8 2.44922 7.55225 2 7 2C6.44775 2 6 2.44922 6 3C6 3.55078 6.44775 4 7 4ZM12 3C12 3.55078 11.5522 4 11 4C10.4478 4 10 3.55078 10 3C10 2.44922 10.4478 2 11 2C11.5522 2 12 2.44922 12 3ZM3 8C3.55225 8 4 7.55078 4 7C4 6.44922 3.55225 6 3 6C2.44775 6 2 6.44922 2 7C2 7.55078 2.44775 8 3 8ZM8 7C8 7.55078 7.55225 8 7 8C6.44775 8 6 7.55078 6 7C6 6.44922 6.44775 6 7 6C7.55225 6 8 6.44922 8 7ZM11 8C11.5522 8 12 7.55078 12 7C12 6.44922 11.5522 6 11 6C10.4478 6 10 6.44922 10 7C10 7.55078 10.4478 8 11 8ZM4 11C4 11.5508 3.55225 12 3 12C2.44775 12 2 11.5508 2 11C2 10.4492 2.44775 10 3 10C3.55225 10 4 10.4492 4 11ZM7 12C7.55225 12 8 11.5508 8 11C8 10.4492 7.55225 10 7 10C6.44775 10 6 10.4492 6 11C6 11.5508 6.44775 12 7 12ZM12 11C12 11.5508 11.5522 12 11 12C10.4478 12 10 11.5508 10 11C10 10.4492 10.4478 10 11 10C11.5522 10 12 10.4492 12 11ZM3 16C3.55225 16 4 15.5508 4 15C4 14.4492 3.55225 14 3 14C2.44775 14 2 14.4492 2 15C2 15.5508 2.44775 16 3 16ZM8 15C8 15.5508 7.55225 16 7 16C6.44775 16 6 15.5508 6 15C6 14.4492 6.44775 14 7 14C7.55225 14 8 14.4492 8 15ZM11 16C11.5522 16 12 15.5508 12 15C12 14.4492 11.5522 14 11 14C10.4478 14 10 14.4492 10 15C10 15.5508 10.4478 16 11 16Z" transform="translate(1.5)" fill="#AEC0C8"/>
</g>
</svg>
