<svg width="20" height="24" viewBox="0 0 20 24" fill="none" xmlns="http://www.w3.org/2000/svg">
<mask id="mask0" mask-type="alpha" maskUnits="userSpaceOnUse" x="0" y="0" width="20" height="24">
<rect width="20" height="24" fill="#C4C4C4"/>
</mask>
<g mask="url(#mask0)">
<path fill-rule="evenodd" clip-rule="evenodd" d="M7 0H0V18H7V0ZM5 3H2V15H5V3Z" transform="translate(12)" fill="#AEC0C8"/>
<path fill-rule="evenodd" clip-rule="evenodd" d="M7 0H0V18H7V0ZM5 3H2V15H5V3Z" transform="translate(1)" fill="#AEC0C8"/>
<rect width="9" height="1" transform="translate(11)" fill="#AEC0C8"/>
<rect width="9" height="1" fill="#AEC0C8"/>
<rect width="9" height="1" transform="translate(11 18) scale(1 -1)" fill="#AEC0C8"/>
<rect width="4" height="2" transform="translate(14.7542 20.4688) scale(1 -1) rotate(61.2936)" fill="#AEC0C8"/>
<rect width="4" height="2" transform="translate(6.70361 19.4648) scale(-1 1) rotate(-60)" fill="#AEC0C8"/>
<rect width="10" height="2" transform="translate(15 19) scale(-1 1)" fill="#AEC0C8"/>
<rect width="4" height="2" transform="translate(11 24) scale(1 -1) rotate(90)" fill="#AEC0C8"/>
<rect width="9" height="1" transform="translate(0 18) scale(1 -1)" fill="#AEC0C8"/>
</g>
</svg>
