<svg width="1511" height="87" viewBox="0 0 1511 87" fill="none" xmlns="http://www.w3.org/2000/svg">
<path d="M48.36 60.72C45.96 66.96 43.28 71.88 40.32 75.48C37.44 79 33.96 81.64 29.88 83.4C25.88 85.08 20.8 86.24 14.64 86.88L12.24 74.88C17.6 74.08 21.68 72.84 24.48 71.16C27.28 69.4 29.6 66.6 31.44 62.76H25.68L0 1.92H18.12L36.72 52.68L53.04 1.92H70.92L48.36 60.72Z" transform="translate(0.919922 0.0390625)" fill="url(#paint0_linear)"/>
<path d="M153.163 84.96V48.6H125.683V84.96H108.043V1.92H125.683V34.68H153.163V1.92H170.803V84.96H153.163Z" transform="translate(0.919922 0.0390625)" fill="url(#paint1_linear)"/>
<path d="M280.957 84.96H263.557V51.6C263.557 40.24 264.397 29.6 266.077 19.68L239.917 84.96H218.317V1.92H235.717V35.64C235.717 42.36 235.477 47.96 234.997 52.44C234.597 56.84 233.997 61.72 233.197 67.08L259.837 1.92H280.957V84.96Z" transform="translate(0.919922 0.0390625)" fill="url(#paint2_linear)"/>
<path d="M370.953 41.04C376.553 42.08 381.073 44.12 384.513 47.16C388.033 50.12 389.793 54.68 389.793 60.84C389.793 69.56 386.673 75.76 380.433 79.44C374.193 83.12 365.513 84.96 354.393 84.96H328.473V1.92H351.153C362.513 1.92 371.193 3.60001 377.193 6.96C383.193 10.32 386.193 15.72 386.193 23.16C386.193 28.04 384.713 32 381.753 35.04C378.873 38 375.273 40 370.953 41.04ZM346.113 14.64V35.64H354.753C359.073 35.64 362.393 34.76 364.713 33C367.033 31.16 368.193 28.4 368.193 24.72C368.193 21.04 366.953 18.44 364.473 16.92C361.993 15.4 358.113 14.64 352.833 14.64H346.113ZM354.513 71.88C360.033 71.88 364.233 71.08 367.113 69.48C369.993 67.8 371.433 64.68 371.433 60.12C371.433 51.8 366.313 47.64 356.073 47.64H346.113V71.88H354.513Z" transform="translate(0.919922 0.0390625)" fill="url(#paint3_linear)"/>
<path d="M481.861 1.92L479.941 14.76H449.941V36.36H476.101V49.08H449.941V72H482.101V84.96H432.301V1.92H481.861Z" transform="translate(0.919922 0.0390625)" fill="url(#paint4_linear)"/>
<path d="M551.379 1.92C562.179 1.92 570.539 4.16001 576.459 8.64001C582.459 13.12 585.459 19.8 585.459 28.68C585.459 37.96 582.499 44.96 576.579 49.68C570.659 54.32 562.739 56.64 552.819 56.64H543.339V84.96H525.699V1.92H551.379ZM551.379 43.68C556.499 43.68 560.419 42.52 563.139 40.2C565.859 37.88 567.219 34.04 567.219 28.68C567.219 19.32 561.859 14.64 551.139 14.64H543.339V43.68H551.379Z" transform="translate(0.919922 0.0390625)" fill="url(#paint5_linear)"/>
<path d="M659.827 0C665.027 0 669.547 0.760001 673.387 2.28C677.227 3.72 680.987 5.96 684.667 9L675.907 19.2C671.107 15.28 666.067 13.32 660.787 13.32C654.867 13.32 650.147 15.76 646.627 20.64C643.187 25.44 641.467 33 641.467 43.32C641.467 53.4 643.187 60.88 646.627 65.76C650.147 70.56 654.907 72.96 660.907 72.96C664.027 72.96 666.867 72.4 669.427 71.28C671.987 70.08 674.667 68.4 677.467 66.24L685.627 76.44C682.667 79.48 678.987 82 674.587 84C670.267 85.92 665.467 86.88 660.187 86.88C652.747 86.88 646.227 85.2 640.627 81.84C635.027 78.48 630.667 73.56 627.547 67.08C624.427 60.52 622.867 52.6 622.867 43.32C622.867 34.28 624.467 26.52 627.667 20.04C630.867 13.48 635.267 8.52 640.867 5.16C646.467 1.72 652.787 0 659.827 0Z" transform="translate(0.919922 0.0390625)" fill="url(#paint6_linear)"/>
<path d="M769.541 84.96L764.861 66.36H738.821L734.141 84.96H715.781L741.341 1.92H762.821L788.261 84.96H769.541ZM742.181 53.28H761.501L751.781 15L742.181 53.28Z" transform="translate(0.919922 0.0390625)" fill="url(#paint7_linear)"/>
<path d="M887.134 1.92V84.96H869.494V15.6H850.054L846.814 45.48C845.694 55.08 844.294 62.6 842.614 68.04C840.934 73.4 838.494 77.56 835.294 80.52C832.094 83.4 827.654 85.52 821.974 86.88L817.774 74.28C820.734 73.08 822.894 71.52 824.254 69.6C825.694 67.68 826.774 65 827.494 61.56C828.294 58.12 829.134 52.6 830.014 45L835.174 1.92H887.134Z" transform="translate(0.919922 0.0390625)" fill="url(#paint8_linear)"/>
<path d="M961.804 30.72C972.204 30.72 980.244 32.92 985.924 37.32C991.604 41.72 994.444 48.32 994.444 57.12C994.444 66.48 991.484 73.48 985.564 78.12C979.724 82.68 971.844 84.96 961.924 84.96H934.684V1.92H952.324V30.72H961.804ZM960.964 71.88C965.844 71.88 969.564 70.76 972.124 68.52C974.684 66.28 975.964 62.56 975.964 57.36C975.964 52.56 974.684 49.04 972.124 46.8C969.564 44.48 965.684 43.32 960.484 43.32H952.324V71.88H960.964Z" transform="translate(0.919922 0.0390625)" fill="url(#paint9_linear)"/>
<path d="M1080.47 84.96V48.6H1052.99V84.96H1035.35V1.92H1052.99V34.68H1080.47V1.92H1098.11V84.96H1080.47Z" transform="translate(0.919922 0.0390625)" fill="url(#paint10_linear)"/>
<path d="M1178.38 0C1185.98 0 1192.54 1.72 1198.06 5.16C1203.58 8.52 1207.82 13.44 1210.78 19.92C1213.74 26.4 1215.22 34.24 1215.22 43.44C1215.22 52.48 1213.74 60.28 1210.78 66.84C1207.82 73.32 1203.58 78.28 1198.06 81.72C1192.54 85.16 1185.98 86.88 1178.38 86.88C1170.78 86.88 1164.18 85.2 1158.58 81.84C1153.06 78.4 1148.82 73.44 1145.86 66.96C1142.9 60.4 1141.42 52.56 1141.42 43.44C1141.42 34.48 1142.9 26.76 1145.86 20.28C1148.9 13.72 1153.18 8.72 1158.7 5.28C1164.3 1.76 1170.86 0 1178.38 0ZM1178.38 13.2C1172.3 13.2 1167.7 15.6 1164.58 20.4C1161.54 25.2 1160.02 32.88 1160.02 43.44C1160.02 54 1161.58 61.68 1164.7 66.48C1167.82 71.28 1172.38 73.68 1178.38 73.68C1184.46 73.68 1189.02 71.32 1192.06 66.6C1195.1 61.8 1196.62 54.08 1196.62 43.44C1196.62 32.8 1195.1 25.12 1192.06 20.4C1189.02 15.6 1184.46 13.2 1178.38 13.2Z" transform="translate(0.919922 0.0390625)" fill="url(#paint11_linear)"/>
<path d="M1291.35 0C1296.55 0 1301.07 0.760001 1304.91 2.28C1308.75 3.72 1312.51 5.96 1316.19 9L1307.43 19.2C1302.63 15.28 1297.59 13.32 1292.31 13.32C1286.39 13.32 1281.67 15.76 1278.15 20.64C1274.71 25.44 1272.99 33 1272.99 43.32C1272.99 53.4 1274.71 60.88 1278.15 65.76C1281.67 70.56 1286.43 72.96 1292.43 72.96C1295.55 72.96 1298.39 72.4 1300.95 71.28C1303.51 70.08 1306.19 68.4 1308.99 66.24L1317.15 76.44C1314.19 79.48 1310.51 82 1306.11 84C1301.79 85.92 1296.99 86.88 1291.71 86.88C1284.27 86.88 1277.75 85.2 1272.15 81.84C1266.55 78.48 1262.19 73.56 1259.07 67.08C1255.95 60.52 1254.39 52.6 1254.39 43.32C1254.39 34.28 1255.99 26.52 1259.19 20.04C1262.39 13.48 1266.79 8.52 1272.39 5.16C1277.99 1.72 1284.31 0 1291.35 0Z" transform="translate(0.919922 0.0390625)" fill="url(#paint12_linear)"/>
<path d="M1411.05 1.92L1409.13 15.72H1388.13V84.96H1370.49V15.72H1348.41V1.92H1411.05Z" transform="translate(0.919922 0.0390625)" fill="url(#paint13_linear)"/>
<path d="M1477.19 30.72C1487.59 30.72 1495.63 32.92 1501.31 37.32C1506.99 41.72 1509.83 48.32 1509.83 57.12C1509.83 66.48 1506.87 73.48 1500.95 78.12C1495.11 82.68 1487.23 84.96 1477.31 84.96H1450.07V1.92H1467.71V30.72H1477.19ZM1476.35 71.88C1481.23 71.88 1484.95 70.76 1487.51 68.52C1490.07 66.28 1491.35 62.56 1491.35 57.36C1491.35 52.56 1490.07 49.04 1487.51 46.8C1484.95 44.48 1481.07 43.32 1475.87 43.32H1467.71V71.88H1476.35Z" transform="translate(0.919922 0.0390625)" fill="url(#paint14_linear)"/>
<defs>
<linearGradient id="paint0_linear" x2="1" gradientUnits="userSpaceOnUse" gradientTransform="matrix(1541 -17 181.923 16490.8 -89.8816 -8183.46)">
<stop stop-color="#D6E9F5"/>
<stop offset="1" stop-color="#E7EFFA"/>
</linearGradient>
<linearGradient id="paint1_linear" x2="1" gradientUnits="userSpaceOnUse" gradientTransform="matrix(1541 -17 181.923 16490.8 -89.8816 -8183.46)">
<stop stop-color="#D6E9F5"/>
<stop offset="1" stop-color="#E7EFFA"/>
</linearGradient>
<linearGradient id="paint2_linear" x2="1" gradientUnits="userSpaceOnUse" gradientTransform="matrix(1541 -17 181.923 16490.8 -89.8816 -8183.46)">
<stop stop-color="#D6E9F5"/>
<stop offset="1" stop-color="#E7EFFA"/>
</linearGradient>
<linearGradient id="paint3_linear" x2="1" gradientUnits="userSpaceOnUse" gradientTransform="matrix(1541 -17 181.923 16490.8 -89.8816 -8183.46)">
<stop stop-color="#D6E9F5"/>
<stop offset="1" stop-color="#E7EFFA"/>
</linearGradient>
<linearGradient id="paint4_linear" x2="1" gradientUnits="userSpaceOnUse" gradientTransform="matrix(1541 -17 181.923 16490.8 -89.8816 -8183.46)">
<stop stop-color="#D6E9F5"/>
<stop offset="1" stop-color="#E7EFFA"/>
</linearGradient>
<linearGradient id="paint5_linear" x2="1" gradientUnits="userSpaceOnUse" gradientTransform="matrix(1541 -17 181.923 16490.8 -89.8816 -8183.46)">
<stop stop-color="#D6E9F5"/>
<stop offset="1" stop-color="#E7EFFA"/>
</linearGradient>
<linearGradient id="paint6_linear" x2="1" gradientUnits="userSpaceOnUse" gradientTransform="matrix(1541 -17 181.923 16490.8 -89.8816 -8183.46)">
<stop stop-color="#D6E9F5"/>
<stop offset="1" stop-color="#E7EFFA"/>
</linearGradient>
<linearGradient id="paint7_linear" x2="1" gradientUnits="userSpaceOnUse" gradientTransform="matrix(1541 -17 181.923 16490.8 -89.8816 -8183.46)">
<stop stop-color="#D6E9F5"/>
<stop offset="1" stop-color="#E7EFFA"/>
</linearGradient>
<linearGradient id="paint8_linear" x2="1" gradientUnits="userSpaceOnUse" gradientTransform="matrix(1541 -17 181.923 16490.8 -89.8816 -8183.46)">
<stop stop-color="#D6E9F5"/>
<stop offset="1" stop-color="#E7EFFA"/>
</linearGradient>
<linearGradient id="paint9_linear" x2="1" gradientUnits="userSpaceOnUse" gradientTransform="matrix(1541 -17 181.923 16490.8 -89.8816 -8183.46)">
<stop stop-color="#D6E9F5"/>
<stop offset="1" stop-color="#E7EFFA"/>
</linearGradient>
<linearGradient id="paint10_linear" x2="1" gradientUnits="userSpaceOnUse" gradientTransform="matrix(1541 -17 181.923 16490.8 -89.8816 -8183.46)">
<stop stop-color="#D6E9F5"/>
<stop offset="1" stop-color="#E7EFFA"/>
</linearGradient>
<linearGradient id="paint11_linear" x2="1" gradientUnits="userSpaceOnUse" gradientTransform="matrix(1541 -17 181.923 16490.8 -89.8816 -8183.46)">
<stop stop-color="#D6E9F5"/>
<stop offset="1" stop-color="#E7EFFA"/>
</linearGradient>
<linearGradient id="paint12_linear" x2="1" gradientUnits="userSpaceOnUse" gradientTransform="matrix(1541 -17 181.923 16490.8 -89.8816 -8183.46)">
<stop stop-color="#D6E9F5"/>
<stop offset="1" stop-color="#E7EFFA"/>
</linearGradient>
<linearGradient id="paint13_linear" x2="1" gradientUnits="userSpaceOnUse" gradientTransform="matrix(1541 -17 181.923 16490.8 -89.8816 -8183.46)">
<stop stop-color="#D6E9F5"/>
<stop offset="1" stop-color="#E7EFFA"/>
</linearGradient>
<linearGradient id="paint14_linear" x2="1" gradientUnits="userSpaceOnUse" gradientTransform="matrix(1541 -17 181.923 16490.8 -89.8816 -8183.46)">
<stop stop-color="#D6E9F5"/>
<stop offset="1" stop-color="#E7EFFA"/>
</linearGradient>
</defs>
</svg>
