<svg width="1251" height="93" viewBox="0 0 1251 93" fill="none" xmlns="http://www.w3.org/2000/svg">
<path d="M71.16 28.96V112H53.52V42.76H26.4V112H8.76V28.96H71.16ZM144.479 28.96C155.279 28.96 163.639 31.2 169.559 35.68C175.559 40.16 178.559 46.84 178.559 55.72C178.559 65 175.599 72 169.679 76.72C163.759 81.36 155.839 83.68 145.919 83.68H136.439V112H118.799V28.96H144.479ZM144.479 70.72C149.599 70.72 153.519 69.56 156.239 67.24C158.959 64.92 160.319 61.08 160.319 55.72C160.319 46.36 154.959 41.68 144.239 41.68H136.439V70.72H144.479ZM252.926 27.04C260.526 27.04 267.086 28.76 272.606 32.2C278.126 35.56 282.366 40.48 285.326 46.96C288.286 53.44 289.766 61.28 289.766 70.48C289.766 79.52 288.286 87.32 285.326 93.88C282.366 100.36 278.126 105.32 272.606 108.76C267.086 112.2 260.526 113.92 252.926 113.92C245.326 113.92 238.726 112.24 233.126 108.88C227.606 105.44 223.366 100.48 220.406 94C217.446 87.44 215.966 79.6 215.966 70.48C215.966 61.52 217.446 53.8 220.406 47.32C223.446 40.76 227.726 35.76 233.246 32.32C238.846 28.8 245.406 27.04 252.926 27.04ZM252.926 40.24C246.846 40.24 242.246 42.64 239.126 47.44C236.086 52.24 234.566 59.92 234.566 70.48C234.566 81.04 236.126 88.72 239.246 93.52C242.366 98.32 246.926 100.72 252.926 100.72C259.006 100.72 263.566 98.36 266.606 93.64C269.646 88.84 271.166 81.12 271.166 70.48C271.166 59.84 269.646 52.16 266.606 47.44C263.566 42.64 259.006 40.24 252.926 40.24ZM422.655 70C422.655 81.92 419.215 90.96 412.335 97.12C405.455 103.2 395.895 106.44 383.655 106.84V116.56H366.495V106.72C354.095 106.16 344.495 102.88 337.695 96.88C330.895 90.8 327.495 81.96 327.495 70.36C327.495 58.44 330.935 49.44 337.815 43.36C344.695 37.2 354.255 33.92 366.495 33.52V24.52H383.655V33.64C396.055 34.2 405.655 37.52 412.455 43.6C419.255 49.6 422.655 58.4 422.655 70ZM382.935 95.56C390.535 95.08 396.055 92.8 399.495 88.72C402.935 84.64 404.655 78.4 404.655 70C404.655 61.76 402.895 55.6 399.375 51.52C395.855 47.44 390.375 45.2 382.935 44.8V95.56ZM345.495 70.36C345.495 78.6 347.255 84.76 350.775 88.84C354.295 92.92 359.775 95.16 367.215 95.56V44.8C359.615 45.28 354.095 47.56 350.655 51.64C347.215 55.72 345.495 61.96 345.495 70.36ZM527.142 112H509.742V78.64C509.742 67.28 510.582 56.64 512.262 46.72L486.102 112H464.502V28.96H481.902V62.68C481.902 69.4 481.662 75 481.182 79.48C480.782 83.88 480.182 88.76 479.382 94.12L506.022 28.96H527.142V112ZM635.858 28.96V112H618.218V42.64H598.778L595.538 72.52C594.418 82.12 593.018 89.64 591.338 95.08C589.658 100.44 587.218 104.6 584.018 107.56C580.818 110.44 576.378 112.56 570.698 113.92L566.498 101.32C569.458 100.12 571.618 98.56 572.978 96.64C574.418 94.72 575.498 92.04 576.218 88.6C577.018 85.16 577.858 79.64 578.738 72.04L583.898 28.96H635.858ZM727.328 112L722.648 93.4H696.608L691.928 112H673.568L699.128 28.96H720.608L746.048 112H727.328ZM699.968 80.32H719.288L709.568 42.04L699.968 80.32ZM846.721 28.96L825.601 66.88L849.001 112H829.441L810.721 75.28H801.361V112H783.721V28.96H801.361V62.08H811.081L829.201 28.96H846.721ZM942.629 28.96L940.709 42.76H919.709V112H902.069V42.76H879.989V28.96H942.629ZM1044.29 112H1026.89V78.64C1026.89 67.28 1027.73 56.64 1029.41 46.72L1003.25 112H981.651V28.96H999.051V62.68C999.051 69.4 998.811 75 998.331 79.48C997.931 83.88 997.331 88.76 996.531 94.12L1023.17 28.96H1044.29V112ZM1154.81 28.96L1133.69 66.88L1157.09 112H1137.53L1118.81 75.28H1109.45V112H1091.81V28.96H1109.45V62.08H1119.17L1137.29 28.96H1154.81ZM1239.56 112L1234.88 93.4H1208.83L1204.15 112H1185.8L1211.35 28.96H1232.83L1258.28 112H1239.56ZM1212.19 80.32H1231.52L1221.8 42.04L1212.19 80.32Z" transform="translate(-8 -24)" fill="#FDF5F2"/>
</svg>
