<svg width="20" height="20" viewBox="0 0 20 20" fill="none" xmlns="http://www.w3.org/2000/svg">
<path d="M5 4C5 3.93587 4.96564 3.86373 4.91409 3.81563L0.910653 0.0801603C0.859107 0.0320639 0.781787 0 0.713058 0C0.64433 0 0.56701 0.0320639 0.515464 0.0801603L0.0859107 0.480962C0.0343643 0.529058 0 0.601202 0 0.665331C0 0.729459 0.0343643 0.801603 0.0859107 0.849699L3.4622 4L0.0859107 7.1503C0.0343643 7.1984 0 7.27054 0 7.33467C0 7.40681 0.0343643 7.47094 0.0859107 7.51904L0.515464 7.91984C0.56701 7.96794 0.64433 8 0.713058 8C0.781787 8 0.859107 7.96794 0.910653 7.91984L4.91409 4.18437C4.96564 4.13627 5 4.06413 5 4Z" transform="translate(14 12.5) scale(-1 1) rotate(-90)" fill="#D64B4B"/>
</svg>
